<?xml version="1.0" encoding="UTF-8"?>
<svg version="1.1" xmlns="http://www.w3.org/2000/svg" width="161" height="150">
<path d="M0 0 C53.13 0 106.26 0 161 0 C161 49.5 161 99 161 150 C107.87 150 54.74 150 0 150 C0 100.5 0 51 0 0 Z " fill="#010000" transform="translate(0,0)"/>
<path d="M0 0 C25.08 0 50.16 0 76 0 C75.01 2.64 74.02 5.28 73 8 C72.60074108 10.32296101 72.24420188 12.65566193 72 15 C72.99 15.33 73.98 15.66 75 16 C74.979375 16.94875 74.95875 17.8975 74.9375 18.875 C74.77448174 21.90666283 74.77448174 21.90666283 76 24 C75.39421747 26.01927511 74.73080266 28.02253397 74 30 C72.1746875 30.0928125 72.1746875 30.0928125 70.3125 30.1875 C66.67760547 30.602734 66.12904281 30.87095719 63.375 33.625 C61 36 61 36 57.9375 36.125 C54.278635 34.72373255 52.92981492 33.39647426 51 30 C51.25 27.1875 51.25 27.1875 52 25 C51.21625 24.855625 50.4325 24.71125 49.625 24.5625 C47 24 47 24 45 23 C45 22.01 45 21.02 45 20 C40.05 19.01 35.1 18.02 30 17 C30.5775 18.93875 31.155 20.8775 31.75 22.875 C32.07484375 23.96554688 32.3996875 25.05609375 32.734375 26.1796875 C33.74112663 29.10794495 33.74112663 29.10794495 36.140625 30.3828125 C36.75421875 30.58648438 37.3678125 30.79015625 38 31 C38 31.99 38 32.98 38 34 C40.31 34.33 42.62 34.66 45 35 C45 35.99 45 36.98 45 38 C46.32 37.34 47.64 36.68 49 36 C49 37.32 49 38.64 49 40 C49.66 40.70125 50.32 41.4025 51 42.125 C54.48749552 47.13827481 53.24050339 52.71521776 52.625 58.5625 C52.41875 59.366875 52.2125 60.17125 52 61 C51.01 61.495 51.01 61.495 50 62 C49.34 62.99 48.68 63.98 48 65 C47.34 64.34 46.68 63.68 46 63 C44.01178687 62.60235737 42.01055661 62.26224651 40 62 C40 61.01 40 60.02 40 59 C38.9275 59.495 37.855 59.99 36.75 60.5 C32.00589167 62.32465705 27.65918997 62.16095827 22.63671875 61.91015625 C19.76528264 61.77655789 19.76528264 61.77655789 17 64 C17.11306697 65.95894361 17.11306697 65.95894361 18 68 C20.41021376 69.23767733 22.59542988 69.92133359 25.25 70.4375 C26.11625 70.7159375 26.11625 70.7159375 27 71 C27.33 71.99 27.66 72.98 28 74 C29.91635217 74.05423638 31.83314925 74.09289963 33.75 74.125 C34.81734375 74.14820312 35.8846875 74.17140625 36.984375 74.1953125 C39.93473465 74.21162602 39.93473465 74.21162602 42.015625 72.9296875 C44.87833597 71.58849614 46.99381654 72.31677649 50 73 C50.06058594 73.86882812 50.12117188 74.73765625 50.18359375 75.6328125 C50.26738281 76.78523438 50.35117187 77.93765625 50.4375 79.125 C50.51871094 80.26195313 50.59992187 81.39890625 50.68359375 82.5703125 C50.95290645 85.96741183 50.95290645 85.96741183 51.5390625 89.16796875 C52.20643209 93.26833274 51.99920845 95.9365523 51 100 C47.78318686 102.23778305 45.91333002 103 42 103 C42 104.32 42 105.64 42 107 C41.34 107 40.68 107 40 107 C39.83240016 109.1249266 39.66594799 111.24994376 39.5 113.375 C39.4071875 114.55835937 39.314375 115.74171875 39.21875 116.9609375 C39.09804546 118.63786843 39 120.31873056 39 122 C40.98203709 121.38416344 42.9605772 120.75706166 44.9375 120.125 C46.03964844 119.77695313 47.14179687 119.42890625 48.27734375 119.0703125 C51.12878804 118.29975705 51.12878804 118.29975705 52 116 C52.63421875 115.88785156 53.2684375 115.77570313 53.921875 115.66015625 C56.19510188 115.18762881 56.19510188 115.18762881 57.265625 112.93359375 C57.59046875 112.10988281 57.9153125 111.28617187 58.25 110.4375 C58.58515625 109.61121094 58.9203125 108.78492187 59.265625 107.93359375 C59.50796875 107.29550781 59.7503125 106.65742187 60 106 C60.99 106.33 61.98 106.66 63 107 C63 107.99 63 108.98 63 110 C63.94875 109.938125 64.8975 109.87625 65.875 109.8125 C66.90625 109.874375 67.9375 109.93625 69 110 C71.1519437 113.22791555 71.20086443 114.28400809 71 118 C71.66 118 72.32 118 73 118 C73 120.31 73 122.62 73 125 C73.66 125.33 74.32 125.66 75 126 C74.125 132.875 74.125 132.875 73 134 C72.28427458 140.87096401 73.87190947 142.96179631 77 150 C51.59 150 26.18 150 0 150 C0 100.5 0 51 0 0 Z " fill="#010000" transform="translate(0,0)"/>
<path d="M0 0 C2.31 0 4.62 0 7 0 C10.34594658 5.18082051 11.56826496 8.84777564 12 15 C11.01 15 10.02 15 9 15 C9 19.62 9 24.24 9 29 C11.79947917 29.9765625 14.59895833 30.953125 17.3984375 31.9296875 C20 33 20 33 22 35 C25.58343976 35.16677282 25.58343976 35.16677282 29 35 C29 34.01 29 33.02 29 32 C29.66 32 30.32 32 31 32 C31.04125 30.906875 31.0825 29.81375 31.125 28.6875 C32 25 32 25 34.9375 23.1875 C35.948125 22.795625 36.95875 22.40375 38 22 C38.66 21.34 39.32 20.68 40 20 C41.32 20 42.64 20 44 20 C44.99 19.34 45.98 18.68 47 18 C47 17.67 47 17.34 47 17 C48.98 17 50.96 17 53 17 C53.59551568 22.71695055 52.40162446 25.69983599 49.2890625 30.49609375 C48.86367187 30.99238281 48.43828125 31.48867188 48 32 C47.34 32 46.68 32 46 32 C46 32.66 46 33.32 46 34 C45.01 34.495 45.01 34.495 44 35 C44.33 35.66 44.66 36.32 45 37 C44.34 37 43.68 37 43 37 C43 37.66 43 38.32 43 39 C42.34 39 41.68 39 41 39 C40.67 38.01 40.34 37.02 40 36 C39.54625 36.495 39.0925 36.99 38.625 37.5 C37 39 37 39 35 39 C35 38.01 35 37.02 35 36 C34.34 35.67 33.68 35.34 33 35 C33.99 35 34.98 35 36 35 C36 34.34 36 33.68 36 33 C37.98 32.34 39.96 31.68 42 31 C41.505 30.01 41.505 30.01 41 29 C40.01 29 39.02 29 38 29 C38.495 28.505 38.495 28.505 39 28 C37.515 27.505 37.515 27.505 36 27 C36 27.99 36 28.98 36 30 C34.68 30.33 33.36 30.66 32 31 C31.814375 32.175625 31.814375 32.175625 31.625 33.375 C31 36 31 36 29 38 C25.375 38.125 25.375 38.125 22 38 C23.31201173 39.56249809 23.31201173 39.56249809 25 41 C25.99 41 26.98 41 28 41 C27.505 41.99 27.505 41.99 27 43 C29.12364481 43.22609337 29.12364481 43.22609337 30.625 41.5 C31.07875 41.005 31.5325 40.51 32 40 C33.485 40.495 33.485 40.495 35 41 C35 42.65 35 44.3 35 46 C34.34 45.01 33.68 44.02 33 43 C31.83859208 45.95717749 31.83859208 45.95717749 32 49.0625 C32 52 32 52 31 54 C30.95977609 56.3329866 30.95679753 58.66706666 31 61 C31.99 61 32.98 61 34 61 C34 62.32 34 63.64 34 65 C34.66 65 35.32 65 36 65 C36.495 63.515 36.495 63.515 37 62 C39.64 61.67 42.28 61.34 45 61 C45.33 61.66 45.66 62.32 46 63 C45.1646875 63.0928125 45.1646875 63.0928125 44.3125 63.1875 C41.05012827 64.33373872 39.31332126 66.49390197 37 69 C37.78375 69.144375 38.5675 69.28875 39.375 69.4375 C42 70 42 70 44 71 C44 71.66 44 72.32 44 73 C44.66 73 45.32 73 46 73 C45.47731534 70.23723823 44.89130413 67.6739124 44 65 C51.97490128 63.67084979 59.94186719 63.91198641 68 64 C67.69140625 65.890625 67.69140625 65.890625 67 68 C63.9375 69.75 63.9375 69.75 61 71 C61 70.34 61 69.68 61 69 C57.83884224 70.36983503 57.0072908 70.9890638 55 74 C53.02 73.01 53.02 73.01 51 72 C51 72.66 51 73.32 51 74 C43.09090909 75.31818182 43.09090909 75.31818182 39 73 C37.00045367 72.95740315 34.99946959 72.95394176 33 73 C32.9419034 76.9166043 32.90637107 80.83309763 32.875 84.75 C32.84986328 86.41675781 32.84986328 86.41675781 32.82421875 88.1171875 C32.81777344 89.18710938 32.81132813 90.25703125 32.8046875 91.359375 C32.79421387 92.34389648 32.78374023 93.32841797 32.77294922 94.34277344 C33.01007662 97.11792895 33.42992927 98.71001652 35 101 C38.04199472 102.29231642 38.04199472 102.29231642 41 103 C41 104.32 41 105.64 41 107 C42.485 107.495 42.485 107.495 44 108 C45.61729417 111.67566856 45.06546005 116.07239675 45 120 C43.02 120.99 43.02 120.99 41 122 C39.515 121.01 39.515 121.01 38 120 C35.21447673 119.00258406 35.21447673 119.00258406 33.125 118.625 C30.30463648 117.79548132 28.34609703 116.79044247 26 115 C24.8125 111.9375 24.8125 111.9375 24 109 C23.34 108.34 22.68 107.68 22 107 C21.34 107.99 20.68 108.98 20 110 C19.195625 110.0825 18.39125 110.165 17.5625 110.25 C16.716875 110.4975 15.87125 110.745 15 111 C13.13016255 114.47307328 13.13016255 114.47307328 12 118 C11.34 118 10.68 118 10 118 C10.20625 118.94875 10.4125 119.8975 10.625 120.875 C10.74875 121.90625 10.8725 122.9375 11 124 C10.34 124.66 9.68 125.32 9 126 C8.83322718 129.58343976 8.83322718 129.58343976 9 133 C9.99 133.33 10.98 133.66 12 134 C10.35573425 145.14206395 10.35573425 145.14206395 6 149 C3.36328125 149.62109375 3.36328125 149.62109375 1 150 C-2.40751072 144.63317062 -4.90245652 140.57504034 -4 134 C-3.33333333 132.66666667 -2.66666667 131.33333333 -2 130 C-2.26259783 127.51948778 -2.26259783 127.51948778 -3 125 C-4.11111111 120.22222222 -4.11111111 120.22222222 -3 118 C-3.66 118 -4.32 118 -5 118 C-5.20625 117.05125 -5.4125 116.1025 -5.625 115.125 C-6.305625 113.578125 -6.305625 113.578125 -7 112 C-10.00847418 110.77479736 -10.00847418 110.77479736 -13 110 C-13.33 109.01 -13.66 108.02 -14 107 C-14.66 107 -15.32 107 -16 107 C-16.18175781 107.55429688 -16.36351562 108.10859375 -16.55078125 108.6796875 C-16.92783203 109.76636719 -16.92783203 109.76636719 -17.3125 110.875 C-17.55613281 111.59429687 -17.79976562 112.31359375 -18.05078125 113.0546875 C-19 115 -19 115 -22 117 C-22.99 116.505 -22.99 116.505 -24 116 C-24.495 117.485 -24.495 117.485 -25 119 C-26.70703125 119.94921875 -26.70703125 119.94921875 -28.8125 120.6875 C-29.49957031 120.93886719 -30.18664062 121.19023438 -30.89453125 121.44921875 C-33 122 -33 122 -37 122 C-38.28864145 119.42271711 -37.93455998 117.91128844 -37.625 115.0625 C-37.53476562 114.18722656 -37.44453125 113.31195313 -37.3515625 112.41015625 C-37 110 -37 110 -36 107 C-35.34 107 -34.68 107 -34 107 C-34 105.68 -34 104.36 -34 103 C-31.03 102.01 -28.06 101.02 -25 100 C-24.972807 98.41676312 -24.95351694 96.83338938 -24.9375 95.25 C-24.92589844 94.36828125 -24.91429687 93.4865625 -24.90234375 92.578125 C-24.90333723 90.08770589 -24.90333723 90.08770589 -25.5 88.09375 C-26.2083036 85.12772869 -26.09293237 82.29323677 -26.0625 79.25 C-26.05347656 78.07953125 -26.04445312 76.9090625 -26.03515625 75.703125 C-26.02355469 74.81109375 -26.01195312 73.9190625 -26 73 C-31.32170494 72.70437633 -31.32170494 72.70437633 -36 75 C-38.84765625 75.08203125 -38.84765625 75.08203125 -42.0625 74.8125 C-43.12597656 74.73644531 -44.18945312 74.66039063 -45.28515625 74.58203125 C-48 74 -48 74 -50 71 C-52.33247761 70.66073053 -54.66585471 70.32759934 -57 70 C-59 68.6875 -59 68.6875 -60 67 C-59.875 64.9375 -59.875 64.9375 -59 63 C-55.41693833 60.61129222 -53.97571894 60.84276395 -49.75 61 C-44.67579983 61.09071196 -40.74035696 60.76385375 -36 59 C-36 59.99 -36 60.98 -36 62 C-35.05125 61.95875 -34.1025 61.9175 -33.125 61.875 C-30 62 -30 62 -28 64 C-27.34 63.01 -26.68 62.02 -26 61 C-25.34 61 -24.68 61 -24 61 C-23.89154969 58.43635517 -23.81250256 55.87733721 -23.75 53.3125 C-23.71648438 52.59126953 -23.68296875 51.87003906 -23.6484375 51.12695312 C-23.55522849 46.02375984 -24.45317739 43.87497352 -28 40 C-28 39.01 -28 38.02 -28 37 C-29.485 37.495 -29.485 37.495 -31 38 C-31 37.01 -31 36.02 -31 35 C-34.465 34.505 -34.465 34.505 -38 34 C-38.33 33.01 -38.66 32.02 -39 31 C-39.928125 30.6596875 -39.928125 30.6596875 -40.875 30.3125 C-44.25904064 28.22235725 -45.06516969 24.75348533 -46 21 C-46 19.68 -46 18.36 -46 17 C-40.1977825 16.63736141 -36.36000789 17.74315457 -31 20 C-31 20.99 -31 21.98 -31 23 C-28.69 23.66 -26.38 24.32 -24 25 C-24.0928125 26.1446875 -24.0928125 26.1446875 -24.1875 27.3125 C-23.96666486 30.47780368 -23.30301466 30.98486217 -21 33 C-21 33.66 -21 34.32 -21 35 C-18.25276753 35.41990073 -18.25276753 35.41990073 -15 35 C-12.99651034 33.33752986 -10.99665598 31.67067133 -9 30 C-5.125 29.1875 -5.125 29.1875 -2 29 C-1.23951451 25.28207094 -0.87332982 22.63038169 -2 19 C-2 18.01 -2 17.02 -2 16 C-2.66 15.67 -3.32 15.34 -4 15 C-4.50610724 8.92671312 -3.04157942 5.22771463 0 0 Z " fill="#473D28" transform="translate(76,0)"/>
<path d="M0 0 C5.8022175 -0.36263859 9.63999211 0.74315457 15 3 C15 3.99 15 4.98 15 6 C17.31 6.66 19.62 7.32 22 8 C21.9071875 9.1446875 21.9071875 9.1446875 21.8125 10.3125 C22.03333514 13.47780368 22.69698534 13.98486217 25 16 C25 16.66 25 17.32 25 18 C27.74723247 18.41990073 27.74723247 18.41990073 31 18 C33.00348966 16.33752986 35.00334402 14.67067133 37 13 C40.875 12.1875 40.875 12.1875 44 12 C44.33 9.69 44.66 7.38 45 5 C45.66 5 46.32 5 47 5 C47.495 5.99 47.495 5.99 48 7 C48.99 7.33 49.98 7.66 51 8 C51 8.66 51 9.32 51 10 C50.01 10.33 49.02 10.66 48 11 C47.16666667 12.91666667 47.16666667 12.91666667 47 15 C47.495 15.99 47.495 15.99 48 17 C46.1875 17.625 46.1875 17.625 44 18 C43.01 17.34 42.02 16.68 41 16 C38.35367713 16.3121764 38.35367713 16.3121764 36 17 C35.814375 18.051875 35.814375 18.051875 35.625 19.125 C34.96161655 22.17656387 34.02788045 25.05340938 33 28 C30.69 27.67 28.38 27.34 26 27 C26 33.27 26 39.54 26 46 C26.99 46.495 26.99 46.495 28 47 C27.67 47.99 27.34 48.98 27 50 C27.66 50 28.32 50 29 50 C29 49.34 29 48.68 29 48 C29.66 48 30.32 48 31 48 C32.21994269 51.65982807 31.49026663 52.58115302 30 56 C30 56.66 30 57.32 30 58 C30.66 57.67 31.32 57.34 32 57 C32 56.01 32 55.02 32 54 C35 52 35 52 37.6875 52.375 C38.450625 52.58125 39.21375 52.7875 40 53 C40 53.66 40 54.32 40 55 C41.32 55.33 42.64 55.66 44 56 C44 56.99 44 57.98 44 59 C41.69 58.34 39.38 57.68 37 57 C36.34 57.66 35.68 58.32 35 59 C34.34 59.66 33.68 60.32 33 61 C33.33 61.66 33.66 62.32 34 63 C33.01 62.67 32.02 62.34 31 62 C30.67 61.34 30.34 60.68 30 60 C27.94009522 61.29467677 27.94009522 61.29467677 26 63 C26 63.99 26 64.98 26 66 C26.66 66 27.32 66 28 66 C28 67.32 28 68.64 28 70 C28.69867188 69.97679688 29.39734375 69.95359375 30.1171875 69.9296875 C31.02726562 69.91164063 31.93734375 69.89359375 32.875 69.875 C33.77992187 69.85179688 34.68484375 69.82859375 35.6171875 69.8046875 C38 70 38 70 40 72 C39.21625 72.103125 38.4325 72.20625 37.625 72.3125 C34.66954819 72.77595022 34.66954819 72.77595022 33 76 C32.505 77.485 32.505 77.485 32 79 C26.07745588 73.48357319 24.36512304 66.88665772 24 59 C23.34 59 22.68 59 22 59 C22.2563327 61.87695765 22.52952063 64.75064267 22.8125 67.625 C22.88275391 68.43324219 22.95300781 69.24148437 23.02539062 70.07421875 C23.66552545 76.37314546 25.46630776 80.69946164 29 86 C25.59173725 84.58968438 23.99178697 83.09051729 22 80 C19.57190872 72.22231724 19.76935805 64.05965484 20 56 C14.67829506 55.70437633 14.67829506 55.70437633 10 58 C7.15234375 58.08203125 7.15234375 58.08203125 3.9375 57.8125 C2.87402344 57.73644531 1.81054688 57.66039062 0.71484375 57.58203125 C-2 57 -2 57 -4 54 C-6.33247761 53.66073053 -8.66585471 53.32759934 -11 53 C-13 51.6875 -13 51.6875 -14 50 C-13.875 47.9375 -13.875 47.9375 -13 46 C-9.41693833 43.61129222 -7.97571894 43.84276395 -3.75 44 C1.32420017 44.09071196 5.25964304 43.76385375 10 42 C10 42.99 10 43.98 10 45 C10.94875 44.95875 11.8975 44.9175 12.875 44.875 C16 45 16 45 18 47 C18.66 46.01 19.32 45.02 20 44 C20.66 44 21.32 44 22 44 C22.10845031 41.43635517 22.18749744 38.87733721 22.25 36.3125 C22.28351562 35.59126953 22.31703125 34.87003906 22.3515625 34.12695312 C22.44477151 29.02375984 21.54682261 26.87497352 18 23 C18 22.01 18 21.02 18 20 C17.01 20.33 16.02 20.66 15 21 C15 20.01 15 19.02 15 18 C12.69 17.67 10.38 17.34 8 17 C7.67 16.01 7.34 15.02 7 14 C6.071875 13.6596875 6.071875 13.6596875 5.125 13.3125 C1.74095936 11.22235725 0.93483031 7.75348533 0 4 C0 2.68 0 1.36 0 0 Z " fill="#615A47" transform="translate(30,17)"/>
<path d="M0 0 C0.66 0 1.32 0 2 0 C2.33 1.65 2.66 3.3 3 5 C3.66 4.67 4.32 4.34 5 4 C6.4606285 6.64738916 7 7.89448334 7 11 C6.34 11 5.68 11 5 11 C5.33 14.63 5.66 18.26 6 22 C5.01 21.34 4.02 20.68 3 20 C3.433125 20.67546875 3.86625 21.3509375 4.3125 22.046875 C4.869375 22.93890625 5.42625 23.8309375 6 24.75 C6.556875 25.63171875 7.11375 26.5134375 7.6875 27.421875 C9 30 9 30 9 34 C9.66 33.01 10.32 32.02 11 31 C10.175 30.05125 9.35 29.1025 8.5 28.125 C6 25.25 6 25.25 6 23 C7.1446875 22.7834375 7.1446875 22.7834375 8.3125 22.5625 C11.08172908 22.0367406 11.08172908 22.0367406 14 21 C16.6875 22.8125 16.6875 22.8125 19 25 C19 25.66 19 26.32 19 27 C19.67518454 29.60470331 19.67518454 29.60470331 21 32 C22.33076989 32.34342449 23.66431979 32.67619874 25 33 C28.46772502 36.83926699 28.37787917 40.69452416 28.23828125 45.6171875 C27.96435891 48.35641089 27.2963962 50.56925713 26 53 C25.67 52.34 25.34 51.68 25 51 C24.01 51 23.02 51 22 51 C22.33 48.69 22.66 46.38 23 44 C22.34 45.65 21.68 47.3 21 49 C18.69 49 16.38 49 14 49 C12.9375 47.1875 12.9375 47.1875 12 45 C12.33 44.01 12.66 43.02 13 42 C12.34 42 11.68 42 11 42 C10.67 44.97 10.34 47.94 10 51 C9.67 50.34 9.34 49.68 9 49 C7.515 48.505 7.515 48.505 6 48 C4.8125 45.4375 4.8125 45.4375 4 43 C3.01 43 2.02 43 1 43 C0.7525 43.804375 0.505 44.60875 0.25 45.4375 C-1 48 -1 48 -3.125 48.8125 C-3.74375 48.874375 -4.3625 48.93625 -5 49 C-5.495 46.525 -5.495 46.525 -6 44 C-6.66 45.32 -7.32 46.64 -8 48 C-9.65 48 -11.3 48 -13 48 C-13 48.99 -13 49.98 -13 51 C-13.99 50.01 -14.98 49.02 -16 48 C-16.33 48.99 -16.66 49.98 -17 51 C-18.32 51 -19.64 51 -21 51 C-22.41880263 48.16239474 -22.1320472 45.72317025 -22.125 42.5625 C-22.12757812 41.40878906 -22.13015625 40.25507812 -22.1328125 39.06640625 C-22 36 -22 36 -21 33 C-19.34385343 32.61781233 -17.67542976 32.28604898 -16 32 C-15.67 32.33 -15.34 32.66 -15 33 C-14.81824219 32.38511719 -14.63648438 31.77023438 -14.44921875 31.13671875 C-14.19785156 30.32847656 -13.94648437 29.52023438 -13.6875 28.6875 C-13.44386719 27.88699219 -13.20023438 27.08648437 -12.94921875 26.26171875 C-11.93510514 23.84537399 -11.05266718 22.60993504 -9 21 C-5.8125 20.3125 -5.8125 20.3125 -3 20 C-3 20.99 -3 21.98 -3 23 C-2.01 22.67 -1.02 22.34 0 22 C-0.33 21.34 -0.66 20.68 -1 20 C-0.0625 17.875 -0.0625 17.875 1 16 C1.99 16 2.98 16 4 16 C4 15.34 4 14.68 4 14 C2.68 13.67 1.36 13.34 0 13 C0 12.34 0 11.68 0 11 C-0.66 11 -1.32 11 -2 11 C-1.34 7.37 -0.68 3.74 0 0 Z " fill="#080504" transform="translate(77,11)"/>
<path d="M0 0 C2.31 0 4.62 0 7 0 C10.34594658 5.18082051 11.56826496 8.84777564 12 15 C11.01 15 10.02 15 9 15 C9 19.62 9 24.24 9 29 C11.79947917 29.9765625 14.59895833 30.953125 17.3984375 31.9296875 C20 33 20 33 22 35 C25.58343976 35.16677282 25.58343976 35.16677282 29 35 C29 34.01 29 33.02 29 32 C29.66 32 30.32 32 31 32 C31.04125 30.906875 31.0825 29.81375 31.125 28.6875 C32 25 32 25 34.9375 23.1875 C35.948125 22.795625 36.95875 22.40375 38 22 C38.66 21.34 39.32 20.68 40 20 C41.32 20 42.64 20 44 20 C44.99 19.34 45.98 18.68 47 18 C47 17.67 47 17.34 47 17 C48.98 17 50.96 17 53 17 C53.59551568 22.71695055 52.40162446 25.69983599 49.2890625 30.49609375 C48.86367187 30.99238281 48.43828125 31.48867188 48 32 C47.34 32 46.68 32 46 32 C46 32.66 46 33.32 46 34 C45.01 34.495 45.01 34.495 44 35 C44.33 35.66 44.66 36.32 45 37 C44.34 37 43.68 37 43 37 C43 37.66 43 38.32 43 39 C42.34 39 41.68 39 41 39 C40.67 38.01 40.34 37.02 40 36 C39.54625 36.495 39.0925 36.99 38.625 37.5 C37 39 37 39 35 39 C35 38.01 35 37.02 35 36 C34.01 35.505 34.01 35.505 33 35 C33.99 35 34.98 35 36 35 C36 34.34 36 33.68 36 33 C37.98 32.34 39.96 31.68 42 31 C41.505 30.01 41.505 30.01 41 29 C40.01 29 39.02 29 38 29 C38.495 28.505 38.495 28.505 39 28 C38.01 27.67 37.02 27.34 36 27 C36 27.99 36 28.98 36 30 C34.68 30.33 33.36 30.66 32 31 C31.814375 32.175625 31.814375 32.175625 31.625 33.375 C31 36 31 36 29 38 C25.375 38.125 25.375 38.125 22 38 C23.31201173 39.56249809 23.31201173 39.56249809 25 41 C25.99 41 26.98 41 28 41 C27.67 41.66 27.34 42.32 27 43 C29.12364481 43.22609337 29.12364481 43.22609337 30.625 41.5 C31.07875 41.005 31.5325 40.51 32 40 C32.99 40.33 33.98 40.66 35 41 C35 42.65 35 44.3 35 46 C34.34 45.01 33.68 44.02 33 43 C31.83859208 45.95717749 31.83859208 45.95717749 32 49.0625 C32 52 32 52 31 54 C30.95977609 56.3329866 30.95679753 58.66706666 31 61 C31.99 61 32.98 61 34 61 C34 62.32 34 63.64 34 65 C34.66 65 35.32 65 36 65 C36.495 63.515 36.495 63.515 37 62 C39.64 61.67 42.28 61.34 45 61 C45.33 61.66 45.66 62.32 46 63 C44.865625 63.309375 43.73125 63.61875 42.5625 63.9375 C39.21224901 64.62924531 39.21224901 64.62924531 38 66 C36.33382885 66.04063832 34.66611905 66.042721 33 66 C32.67 64.68 32.34 63.36 32 62 C30.68 62 29.36 62 28 62 C27.95101562 62.74765625 27.90203125 63.4953125 27.8515625 64.265625 C27.77679688 65.25046875 27.70203125 66.2353125 27.625 67.25 C27.55539063 68.22453125 27.48578125 69.1990625 27.4140625 70.203125 C27.01534751 72.89633189 26.36492937 74.66963279 25 77 C24.01 77 23.02 77 22 77 C21.34 78.65 20.68 80.3 20 82 C17.36 82 14.72 82 12 82 C12.495 80.515 12.495 80.515 13 79 C12.34 79 11.68 79 11 79 C10.67 81.64 10.34 84.28 10 87 C7.525 87.99 7.525 87.99 5 89 C4.67 88.34 4.34 87.68 4 87 C3.01 87.99 3.01 87.99 2 89 C0.68 88.34 -0.64 87.68 -2 87 C-0.08864719 82.88324011 1.45627493 79.71801166 5.6875 77.75 C6.450625 77.5025 7.21375 77.255 8 77 C5.60931266 75.89363605 5.60931266 75.89363605 3 75 C2.01 75.495 2.01 75.495 1 76 C1.33 75.01 1.66 74.02 2 73 C2.99 72.505 2.99 72.505 4 72 C4.33 71.01 4.66 70.02 5 69 C5.33 69 5.66 69 6 69 C6.33 70.65 6.66 72.3 7 74 C8.98 73.01 8.98 73.01 11 72 C11.12375 72.804375 11.2475 73.60875 11.375 74.4375 C11.58125 75.283125 11.7875 76.12875 12 77 C12.66 77.33 13.32 77.66 14 78 C14 78.66 14 79.32 14 80 C17.62793998 78.13433512 17.62793998 78.13433512 20 75 C19.34 75 18.68 75 18 75 C17.505 74.01 17.505 74.01 17 73 C14.47266765 72.34444881 14.47266765 72.34444881 12 72 C12.33 71.34 12.66 70.68 13 70 C15.64 70.33 18.28 70.66 21 71 C21 72.32 21 73.64 21 75 C21.99 74.505 21.99 74.505 23 74 C23 71.03 23 68.06 23 65 C23.495 65.99 23.495 65.99 24 67 C24.99 67 25.98 67 27 67 C26.979375 66.05125 26.95875 65.1025 26.9375 64.125 C27 61 27 61 28 59 C28.40253336 53.71089889 28.55311917 48.78709845 26 44 C24.35 44 22.7 44 21 44 C20.896875 43.278125 20.79375 42.55625 20.6875 41.8125 C19.92035357 38.6741737 18.93766636 36.58355515 17 34 C14.91466367 33.12177688 14.91466367 33.12177688 13 33 C13 33.33 13 33.66 13 34 C11.02 34 9.04 34 7 34 C8.98 36.97 10.96 39.94 13 43 C11.02 45.475 11.02 45.475 9 48 C9.2475 47.113125 9.495 46.22625 9.75 45.3125 C10.35577593 41.94640642 10.35577593 41.94640642 8.25 39.5 C7.5075 38.675 6.765 37.85 6 37 C4.1875 33.8125 4.1875 33.8125 3 31 C3.33 30.34 3.66 29.68 4 29 C4.66 29.99 5.32 30.98 6 32 C6 28.7 6 25.4 6 22 C6.66 22 7.32 22 8 22 C7.01 20.02 6.02 18.04 5 16 C4.34 16.66 3.68 17.32 3 18 C3 15.69 3 13.38 3 11 C2.34 11 1.68 11 1 11 C0.95101562 11.62648438 0.90203125 12.25296875 0.8515625 12.8984375 C0.77679688 13.71570312 0.70203125 14.53296875 0.625 15.375 C0.55539063 16.18710937 0.48578125 16.99921875 0.4140625 17.8359375 C0 20 0 20 -2 22 C-2 20.02 -2 18.04 -2 16 C-2.66 15.67 -3.32 15.34 -4 15 C-4.50610724 8.92671312 -3.04157942 5.22771463 0 0 Z " fill="#564E36" transform="translate(76,0)"/>
<path d="M0 0 C2 2 2 2 2.125 4.625 C2.08375 5.40875 2.0425 6.1925 2 7 C3.95894361 6.88693303 3.95894361 6.88693303 6 6 C7.29660434 3.50965614 7.29660434 3.50965614 8 1 C8.99 1 9.98 1 11 1 C12.04892238 2.63631892 13.04906703 4.30485863 14 6 C14.66 6.33 15.32 6.66 16 7 C16.66 4.69 17.32 2.38 18 0 C18.66 0 19.32 0 20 0 C20 1.65 20 3.3 20 5 C20.763125 5.144375 21.52625 5.28875 22.3125 5.4375 C25 6 25 6 28 7 C28.66 5.02 29.32 3.04 30 1 C31 3 31 3 30.0625 6.125 C29.5365625 7.548125 29.5365625 7.548125 29 9 C29.99 9 30.98 9 32 9 C32.495 11.475 32.495 11.475 33 14 C32.01 14 31.02 14 30 14 C30 16.31 30 18.62 30 21 C29.01 21.33 28.02 21.66 27 22 C27 20.68 27 19.36 27 18 C24.36 18 21.72 18 19 18 C21.475 18.99 21.475 18.99 24 20 C24 20.66 24 21.32 24 22 C24.66 22 25.32 22 26 22 C25.505 23.485 25.505 23.485 25 25 C22.4375 26.1875 22.4375 26.1875 20 27 C20 26.34 20 25.68 20 25 C18.68 24.67 17.36 24.34 16 24 C16.66 24 17.32 24 18 24 C17.34 22.68 16.68 21.36 16 20 C14.02 20.99 14.02 20.99 12 22 C11.67 21.01 11.34 20.02 11 19 C10.34 19.66 9.68 20.32 9 21 C10.65 21.99 12.3 22.98 14 24 C13 26 13 26 10.625 26.8125 C7.37834986 28.28122268 6.56476973 29.87046053 5 33 C5.99 33.66 6.98 34.32 8 35 C8.99 34.34 9.98 33.68 11 33 C10.44271087 36.34373475 9.64826111 39.03312999 8 42 C6.68 42 5.36 42 4 42 C4.33 41.01 4.66 40.02 5 39 C5 38.67 5 38.34 5 38 C-0.01971681 35.5413632 -3.31417675 34.78131449 -9 35 C-9.99 34.67 -10.98 34.34 -12 34 C-12 32.68 -12 31.36 -12 30 C-12.66 30 -13.32 30 -14 30 C-14.33 28.68 -14.66 27.36 -15 26 C-13.02 25.01 -11.04 24.02 -9 23 C-8.67 23.33 -8.34 23.66 -8 24 C-6.35 22.68 -4.7 21.36 -3 20 C-0.69 20.99 1.62 21.98 4 23 C4 22.01 4 21.02 4 20 C3.360625 19.87625 2.72125 19.7525 2.0625 19.625 C1.0415625 19.315625 1.0415625 19.315625 0 19 C-0.33 18.34 -0.66 17.68 -1 17 C-3.31 17.33 -5.62 17.66 -8 18 C-7.67 19.32 -7.34 20.64 -7 22 C-7.99 22 -8.98 22 -10 22 C-11.21994269 18.34017193 -10.49026663 17.41884698 -9 14 C-9 13.34 -9 12.68 -9 12 C-9.66 12 -10.32 12 -11 12 C-11 12.66 -11 13.32 -11 14 C-11.66 14 -12.32 14 -13 14 C-13.33 12.35 -13.66 10.7 -14 9 C-12.68 9 -11.36 9 -10 9 C-9.67 7.68 -9.34 6.36 -9 5 C-8.67 5.99 -8.34 6.98 -8 8 C-7.34 7.67 -6.68 7.34 -6 7 C-6.33 6.34 -6.66 5.68 -7 5 C-5.02 5 -3.04 5 -1 5 C-0.67 3.35 -0.34 1.7 0 0 Z " fill="#1B1509" transform="translate(70,53)"/>
<path d="M0 0 C2.475 0.495 2.475 0.495 5 1 C4.01 1.33 3.02 1.66 2 2 C1.9419034 5.9166043 1.90637107 9.83309763 1.875 13.75 C1.85824219 14.86117187 1.84148437 15.97234375 1.82421875 17.1171875 C1.81777344 18.18710938 1.81132813 19.25703125 1.8046875 20.359375 C1.79421387 21.34389648 1.78374023 22.32841797 1.77294922 23.34277344 C2.01007662 26.11792895 2.42992927 27.71001652 4 30 C7.04199472 31.29231642 7.04199472 31.29231642 10 32 C10 33.32 10 34.64 10 36 C10.99 36.33 11.98 36.66 13 37 C14.61729417 40.67566856 14.06546005 45.07239675 14 49 C12.68 49.66 11.36 50.32 10 51 C9.01 50.34 8.02 49.68 7 49 C4.21447673 48.00258406 4.21447673 48.00258406 2.125 47.625 C-0.69536352 46.79548132 -2.65390297 45.79044247 -5 44 C-6.1875 40.9375 -6.1875 40.9375 -7 38 C-7.66 37.34 -8.32 36.68 -9 36 C-9.66 36.99 -10.32 37.98 -11 39 C-11.804375 39.0825 -12.60875 39.165 -13.4375 39.25 C-14.283125 39.4975 -15.12875 39.745 -16 40 C-17.86983745 43.47307328 -17.86983745 43.47307328 -19 47 C-19.66 47 -20.32 47 -21 47 C-20.79375 47.94875 -20.5875 48.8975 -20.375 49.875 C-20.25125 50.90625 -20.1275 51.9375 -20 53 C-20.66 53.66 -21.32 54.32 -22 55 C-22.16677282 58.58343976 -22.16677282 58.58343976 -22 62 C-21.01 62.33 -20.02 62.66 -19 63 C-20.64426575 74.14206395 -20.64426575 74.14206395 -25 78 C-27.63671875 78.62109375 -27.63671875 78.62109375 -30 79 C-33.40751072 73.63317062 -35.90245652 69.57504034 -35 63 C-34.33333333 61.66666667 -33.66666667 60.33333333 -33 59 C-33.26259783 56.51948778 -33.26259783 56.51948778 -34 54 C-35.11111111 49.22222222 -35.11111111 49.22222222 -34 47 C-33.34 47 -32.68 47 -32 47 C-32 46.34 -32 45.68 -32 45 C-32.66 45 -33.32 45 -34 45 C-34.33 43.35 -34.66 41.7 -35 40 C-34.34 40 -33.68 40 -33 40 C-33 41.32 -33 42.64 -33 44 C-29.37 44 -25.74 44 -22 44 C-21.67 42.35 -21.34 40.7 -21 39 C-19 37 -19 37 -16.375 36.875 C-15.59125 36.91625 -14.8075 36.9575 -14 37 C-14.99 36.34 -15.98 35.68 -17 35 C-17 34.01 -17 33.02 -17 32 C-17.66 31.67 -18.32 31.34 -19 31 C-18.34 31 -17.68 31 -17 31 C-17 30.34 -17 29.68 -17 29 C-16.34 29 -15.68 29 -15 29 C-15 29.99 -15 30.98 -15 32 C-14.34 32 -13.68 32 -13 32 C-13 32.66 -13 33.32 -13 34 C-11.02 33.01 -9.04 32.02 -7 31 C-7.66 30.67 -8.32 30.34 -9 30 C-9 29.34 -9 28.68 -9 28 C-8.01 27.67 -7.02 27.34 -6 27 C-5.01 27.66 -4.02 28.32 -3 29 C-2.45627049 25.94152152 -2 23.11227195 -2 20 C-1.68770276 18.66158328 -1.35169068 17.32860925 -1 16 C0.25071369 10.65363936 0.18377429 5.46218026 0 0 Z " fill="#5C5644" transform="translate(107,71)"/>
<path d="M0 0 C1.32 0 2.64 0 4 0 C4.33 0.99 4.66 1.98 5 3 C8.04386724 3.08226668 10.07175348 2.97608217 13 2 C11.25 5.875 11.25 5.875 9 7 C9.78375 7.144375 10.5675 7.28875 11.375 7.4375 C14 8 14 8 16 9 C16 9.66 16 10.32 16 11 C16.66 11 17.32 11 18 11 C17.47731534 8.23723823 16.89130413 5.6739124 16 3 C23.97490128 1.67084979 31.94186719 1.91198641 40 2 C39.69140625 3.890625 39.69140625 3.890625 39 6 C35.9375 7.75 35.9375 7.75 33 9 C33 8.34 33 7.68 33 7 C29.83884224 8.36983503 29.0072908 8.9890638 27 12 C25.68 11.34 24.36 10.68 23 10 C23 10.66 23 11.32 23 12 C15.01438849 13.33093525 15.01438849 13.33093525 11 11 C8.67504723 10.61250787 6.34148732 10.27017161 4 10 C4.02320312 10.61746094 4.04640625 11.23492187 4.0703125 11.87109375 C4.18457381 17.23321371 3.77397588 21.99009381 2.4375 27.1875 C1.92178649 29.01326836 1.92178649 29.01326836 2 31 C1.35466922 33.33932406 0.68939809 35.67328146 0 38 C-1.98 37.67 -3.96 37.34 -6 37 C-6 37.66 -6 38.32 -6 39 C-5.01 39.33 -4.02 39.66 -3 40 C-4.8125 41.5625 -4.8125 41.5625 -7 43 C-7.99 42.67 -8.98 42.34 -10 42 C-9.67 41.401875 -9.34 40.80375 -9 40.1875 C-7.79212012 37.94613529 -7.79212012 37.94613529 -8 35 C-7.34 34.01 -6.68 33.02 -6 32 C-5.34 32 -4.68 32 -4 32 C-3.67 31.01 -3.34 30.02 -3 29 C-2.34 29 -1.68 29 -1 29 C-0.67 28.34 -0.34 27.68 0 27 C-0.66 26.67 -1.32 26.34 -2 26 C-0.45730076 21.27934033 1.07794619 16.58335908 3 12 C0.82961523 12.79299706 0.82961523 12.79299706 0.3671875 14.84765625 C0.20476562 15.57855469 0.04234375 16.30945313 -0.125 17.0625 C-0.29257813 17.79597656 -0.46015625 18.52945313 -0.6328125 19.28515625 C-0.75398438 19.85105469 -0.87515625 20.41695312 -1 21 C-1.66 21 -2.32 21 -3 21 C-3 22.32 -3 23.64 -3 25 C-4.8125 25.625 -4.8125 25.625 -7 26 C-7.99 25.34 -8.98 24.68 -10 24 C-11.9896995 23.60986284 -13.99019869 23.26797351 -16 23 C-16 23.66 -16 24.32 -16 25 C-15.01 24.67 -14.02 24.34 -13 24 C-13 24.66 -13 25.32 -13 26 C-13.66 26 -14.32 26 -15 26 C-15 26.66 -15 27.32 -15 28 C-17.4375 27.625 -17.4375 27.625 -20 27 C-20.33 26.34 -20.66 25.68 -21 25 C-20.34 24.67 -19.68 24.34 -19 24 C-18.26924352 21.6859378 -17.59861742 19.35171131 -17 17 C-16.34 17 -15.68 17 -15 17 C-15 17.66 -15 18.32 -15 19 C-12.69 19.33 -10.38 19.66 -8 20 C-7.731875 19.195625 -7.46375 18.39125 -7.1875 17.5625 C-6.795625 16.716875 -6.40375 15.87125 -6 15 C-5.01 14.67 -4.02 14.34 -3 14 C-1.96259118 10.74625076 -1.96259118 10.74625076 -1.3125 6.9375 C-1.06113281 5.64714844 -0.80976562 4.35679688 -0.55078125 3.02734375 C-0.36902344 2.02832031 -0.18726562 1.02929688 0 0 Z " fill="#272018" transform="translate(104,62)"/>
<path d="M0 0 C5.8022175 -0.36263859 9.63999211 0.74315457 15 3 C15 3.99 15 4.98 15 6 C17.31 6.66 19.62 7.32 22 8 C21.9071875 9.1446875 21.9071875 9.1446875 21.8125 10.3125 C22.03333514 13.47780368 22.69698534 13.98486217 25 16 C25 16.66 25 17.32 25 18 C27.74723247 18.41990073 27.74723247 18.41990073 31 18 C33.00348966 16.33752986 35.00334402 14.67067133 37 13 C40.875 12.1875 40.875 12.1875 44 12 C44.33 9.69 44.66 7.38 45 5 C45.66 5 46.32 5 47 5 C47.495 5.99 47.495 5.99 48 7 C48.99 7.33 49.98 7.66 51 8 C51 8.66 51 9.32 51 10 C50.01 10.33 49.02 10.66 48 11 C47.16666667 12.91666667 47.16666667 12.91666667 47 15 C47.495 15.99 47.495 15.99 48 17 C46.1875 17.625 46.1875 17.625 44 18 C43.01 17.34 42.02 16.68 41 16 C38.35367713 16.3121764 38.35367713 16.3121764 36 17 C35.814375 18.051875 35.814375 18.051875 35.625 19.125 C34.96161655 22.17656387 34.02788045 25.05340938 33 28 C32.01 27.67 31.02 27.34 30 27 C29.01 27.061875 28.02 27.12375 27 27.1875 C24 27 24 27 22.125 25.3125 C20.83448013 22.65976472 20.91313066 20.91012304 21 18 C19.96939453 18.01740234 19.96939453 18.01740234 18.91796875 18.03515625 C18.01691406 18.04417969 17.11585937 18.05320312 16.1875 18.0625 C14.84751953 18.07990234 14.84751953 18.07990234 13.48046875 18.09765625 C11 18 11 18 8 17 C7.67 16.01 7.34 15.02 7 14 C6.38125 13.773125 5.7625 13.54625 5.125 13.3125 C1.74095936 11.22235725 0.93483031 7.75348533 0 4 C0 2.68 0 1.36 0 0 Z " fill="#150E04" transform="translate(30,17)"/>
<path d="M0 0 C0.66 0.99 1.32 1.98 2 3 C1.125 5.6875 1.125 5.6875 0 8 C-0.66 8 -1.32 8 -2 8 C-1.79375 8.94875 -1.5875 9.8975 -1.375 10.875 C-1.25125 11.90625 -1.1275 12.9375 -1 14 C-1.66 14.66 -2.32 15.32 -3 16 C-3.16677282 19.58343976 -3.16677282 19.58343976 -3 23 C-2.01 23.33 -1.02 23.66 0 24 C-1.64426575 35.14206395 -1.64426575 35.14206395 -6 39 C-8.63671875 39.62109375 -8.63671875 39.62109375 -11 40 C-14.40751072 34.63317062 -16.90245652 30.57504034 -16 24 C-15 22 -15 22 -14 20 C-14.26259783 17.51948778 -14.26259783 17.51948778 -15 15 C-15.33333333 13.33333333 -15.66666667 11.66666667 -16 10 C-14.906875 9.690625 -13.81375 9.38125 -12.6875 9.0625 C-10.44592006 8.41662103 -8.2130649 7.7376883 -6 7 C-5.34 7 -4.68 7 -4 7 C-3.01 6.67 -2.02 6.34 -1 6 C-0.67 4.02 -0.34 2.04 0 0 Z " fill="#494025" transform="translate(88,110)"/>
<path d="M0 0 C1.2065625 0.0309375 1.2065625 0.0309375 2.4375 0.0625 C2.4375 1.0525 2.4375 2.0425 2.4375 3.0625 C8.3775 4.5475 8.3775 4.5475 14.4375 6.0625 C14.7675 4.7425 15.0975 3.4225 15.4375 2.0625 C16.4275 2.0625 17.4175 2.0625 18.4375 2.0625 C18.9325 4.0425 18.9325 4.0425 19.4375 6.0625 C17.7875 6.7225 16.1375 7.3825 14.4375 8.0625 C16.0875 8.0625 17.7375 8.0625 19.4375 8.0625 C18.86405063 10.92974686 18.5760485 11.9239515 16.4375 14.0625 C16.4375 13.0725 16.4375 12.0825 16.4375 11.0625 C15.715625 11.248125 14.99375 11.43375 14.25 11.625 C11.30923027 12.08245307 9.29646942 11.79766357 6.4375 11.0625 C6.1075 12.0525 5.7775 13.0425 5.4375 14.0625 C0.86123037 15.39109441 -3.9711284 15.3253527 -8.5625 14.0625 C-9.2225 13.0725 -9.8825 12.0825 -10.5625 11.0625 C-12.89497761 10.72323053 -15.22835471 10.39009934 -17.5625 10.0625 C-19.5625 8.75 -19.5625 8.75 -20.5625 7.0625 C-20.4375 5 -20.4375 5 -19.5625 3.0625 C-15.92867478 0.63994985 -14.23898523 0.88077923 -9.9375 1 C-7.81308232 1.05393113 -5.68750335 1.08298901 -3.5625 1.0625 C-2.5625 0.0625 -2.5625 0.0625 0 0 Z " fill="#464135" transform="translate(36.5625,59.9375)"/>
<path d="M0 0 C0.66 0 1.32 0 2 0 C2.3403125 1.9490625 2.3403125 1.9490625 2.6875 3.9375 C4.59231897 12.42260269 9.21675492 18.67877863 15 25 C13.68 24.67 12.36 24.34 11 24 C10.77390663 26.12364481 10.77390663 26.12364481 12.5 27.625 C12.995 28.07875 13.49 28.5325 14 29 C12.02 29 10.04 29 8 29 C7.773125 29.5775 7.54625 30.155 7.3125 30.75 C5.61295453 33.66350652 3.82092802 35.16311664 1 37 C-1.8125 37.25 -1.8125 37.25 -4 37 C-3.34 35.68 -2.68 34.36 -2 33 C-3.65 33.66 -5.3 34.32 -7 35 C-7 32.69 -7 30.38 -7 28 C-5.68 28 -4.36 28 -3 28 C-2.67 27.01 -2.34 26.02 -2 25 C-1.34 25 -0.68 25 0 25 C0.33 23.68 0.66 22.36 1 21 C1.66 21.66 2.32 22.32 3 23 C2.690625 22.29875 2.38125 21.5975 2.0625 20.875 C-0.462643 14.04226012 -0.10467301 7.1875466 0 0 Z " fill="#191008" transform="translate(52,76)"/>
<path d="M0 0 C2.64 0.99 5.28 1.98 8 3 C8.33 2.01 8.66 1.02 9 0 C8.979375 1.11375 8.95875 2.2275 8.9375 3.375 C8.73619282 6.83215921 8.73619282 6.83215921 10 9 C9.5625 11.125 9.5625 11.125 9 13 C9.99 13.66 10.98 14.32 12 15 C12.99 14.34 13.98 13.68 15 13 C14.44271087 16.34373475 13.64826111 19.03312999 12 22 C10.68 22 9.36 22 8 22 C8.33 21.01 8.66 20.02 9 19 C9 18.67 9 18.34 9 18 C3.98028319 15.5413632 0.68582325 14.78131449 -5 15 C-5.99 14.67 -6.98 14.34 -8 14 C-8 12.68 -8 11.36 -8 10 C-8.66 10 -9.32 10 -10 10 C-10.33 8.68 -10.66 7.36 -11 6 C-9.02 5.01 -7.04 4.02 -5 3 C-4.67 3.33 -4.34 3.66 -4 4 C-2.68 2.68 -1.36 1.36 0 0 Z " fill="#4A422D" transform="translate(66,73)"/>
<path d="M0 0 C1.64438905 2.95990029 2.54561951 5.63758437 3 9 C2.67 9.33 2.34 9.66 2 10 C2.66 10.33 3.32 10.66 4 11 C4 11.99 4 12.98 4 14 C4.66 14 5.32 14 6 14 C6.28875 14.639375 6.5775 15.27875 6.875 15.9375 C7.82823451 18.15206079 7.82823451 18.15206079 10 19 C10 18.34 10 17.68 10 17 C17.8667126 17.42522771 25.36190145 18.02462968 33 20 C33 20.66 33 21.32 33 22 C22.605 22.99 22.605 22.99 12 24 C12 24.66 12 25.32 12 26 C12.66 26.33 13.32 26.66 14 27 C13.67 28.32 13.34 29.64 13 31 C12.34 31 11.68 31 11 31 C11 30.34 11 29.68 11 29 C8.69 28.34 6.38 27.68 4 27 C5 25 5 25 7 24 C7.66 23.01 8.32 22.02 9 21 C9.66 20.67 10.32 20.34 11 20 C8.6568787 20.25561323 6.32156597 20.59270772 4 21 C3.67 21.66 3.34 22.32 3 23 C2.34 23 1.68 23 1 23 C1 21.68 1 20.36 1 19 C0.01 19 -0.98 19 -2 19 C-2.19601608 17.25093341 -2.38147403 15.50068154 -2.5625 13.75 C-2.66691406 12.77546875 -2.77132812 11.8009375 -2.87890625 10.796875 C-3.06234434 6.56004691 -1.98109831 3.69805017 0 0 Z " fill="#130F0A" transform="translate(109,42)"/>
<path d="M0 0 C2 2 2 2 2.125 4.625 C2.08375 5.40875 2.0425 6.1925 2 7 C3.95894361 6.88693303 3.95894361 6.88693303 6 6 C7.29660434 3.50965614 7.29660434 3.50965614 8 1 C8.99 1 9.98 1 11 1 C12.05771739 2.63064764 13.05273046 4.30280873 14 6 C14.86625 6.6496875 14.86625 6.6496875 15.75 7.3125 C17.38690629 9.52232349 17.02161428 10.50517409 16.6875 13.1875 C16.460625 14.445625 16.23375 15.70375 16 17 C15.01 16.34 14.02 15.68 13 15 C13.33 14.34 13.66 13.68 14 13 C12.6696875 13.3403125 12.6696875 13.3403125 11.3125 13.6875 C7.36665041 14.05974996 6.2019904 13.16350702 3 11 C2.01 11 1.02 11 0 11 C0.99 12.32 1.98 13.64 3 15 C2.236875 14.67 1.47375 14.34 0.6875 14 C-1.99069135 12.82563314 -1.99069135 12.82563314 -5 13 C-5.33 13.66 -5.66 14.32 -6 15 C-6 14.01 -6 13.02 -6 12 C-5.34 12 -4.68 12 -4 12 C-4 11.34 -4 10.68 -4 10 C-5.98 10.33 -7.96 10.66 -10 11 C-10 9.02 -10 7.04 -10 5 C-9.01 5.495 -9.01 5.495 -8 6 C-8 6.66 -8 7.32 -8 8 C-7.34 7.67 -6.68 7.34 -6 7 C-6.33 6.34 -6.66 5.68 -7 5 C-5.02 5 -3.04 5 -1 5 C-0.67 3.35 -0.34 1.7 0 0 Z " fill="#3E392D" transform="translate(70,53)"/>
<path d="M0 0 C4.61866698 -0.31490911 6.45648356 0.1208929 10 3 C11.423125 3.37125 11.423125 3.37125 12.875 3.75 C17.10348208 5.44139283 19.49809491 8.23827036 22 12 C22 12.66 22 13.32 22 14 C24.74723247 14.41990073 24.74723247 14.41990073 28 14 C30.00348966 12.33752986 32.00334402 10.67067133 34 9 C37.875 8.1875 37.875 8.1875 41 8 C41.33 5.69 41.66 3.38 42 1 C42.66 1 43.32 1 44 1 C44.495 1.99 44.495 1.99 45 3 C45.99 3.33 46.98 3.66 48 4 C48 4.66 48 5.32 48 6 C47.01 6.33 46.02 6.66 45 7 C44.16666667 8.91666667 44.16666667 8.91666667 44 11 C44.495 11.99 44.495 11.99 45 13 C43.1875 13.625 43.1875 13.625 41 14 C40.01 13.34 39.02 12.68 38 12 C34.53581611 12.34641839 32.95070119 13.03286587 30 15 C30 15.99 30 16.98 30 18 C21.79486661 16.98312449 21.79486661 16.98312449 18.625 13.0625 C18.08875 12.051875 17.5525 11.04125 17 10 C14.89967042 7.56361768 14.15319369 7.05106456 11 6 C10.67 6.66 10.34 7.32 10 8 C9.34 7.67 8.68 7.34 8 7 C8.33 8.32 8.66 9.64 9 11 C8.01 11.33 7.02 11.66 6 12 C5.67 10.35 5.34 8.7 5 7 C3.68 6.67 2.36 6.34 1 6 C0.67 4.02 0.34 2.04 0 0 Z " fill="#5B594A" transform="translate(33,21)"/>
<path d="M0 0 C0.33 1.32 0.66 2.64 1 4 C0.34 4 -0.32 4 -1 4 C-1.33 5.32 -1.66 6.64 -2 8 C-3.32 7.67 -4.64 7.34 -6 7 C-6 9.31 -6 11.62 -6 14 C-4.35 13.34 -2.7 12.68 -1 12 C-1.33 12.99 -1.66 13.98 -2 15 C0.31 15.33 2.62 15.66 5 16 C4.34 16.99 3.68 17.98 3 19 C2.34 19 1.68 19 1 19 C0.67 19.99 0.34 20.98 0 22 C-1.70703125 22.94921875 -1.70703125 22.94921875 -3.8125 23.6875 C-4.49957031 23.93886719 -5.18664063 24.19023438 -5.89453125 24.44921875 C-8 25 -8 25 -12 25 C-13.28864145 22.42271711 -12.93455998 20.91128844 -12.625 18.0625 C-12.53476562 17.18722656 -12.44453125 16.31195313 -12.3515625 15.41015625 C-12 13 -12 13 -11 10 C-10.34 10 -9.68 10 -9 10 C-9 8.68 -9 7.36 -9 6 C-6.03 5.01 -3.06 4.02 0 3 C0 2.01 0 1.02 0 0 Z " fill="#6E6441" transform="translate(51,97)"/>
<path d="M0 0 C3 1 3 1 4.6875 3.5 C7.96868942 7.04723181 10.26636721 6.76331836 15 7 C15.66 6.01 16.32 5.02 17 4 C19.475 4.495 19.475 4.495 22 5 C22.33 5.99 22.66 6.98 23 8 C25.00016466 9.20882096 25.00016466 9.20882096 27 10 C25.88625 10.12375 24.7725 10.2475 23.625 10.375 C19.96896323 10.6465813 19.96896323 10.6465813 18 13 C17.3574765 15.06874034 17.3574765 15.06874034 17 17 C9.57142857 18.28571429 9.57142857 18.28571429 6 17 C6 15.68 6 14.36 6 13 C5.34 13 4.68 13 4 13 C3.855625 12.195625 3.71125 11.39125 3.5625 10.5625 C3.25864751 8.07896294 3.25864751 8.07896294 2 7 C1.30643577 4.67451993 0.63850788 2.34119555 0 0 Z " fill="#2E220D" transform="translate(68,98)"/>
<path d="M0 0 C1.32 0 2.64 0 4 0 C4 0.66 4 1.32 4 2 C5.98 1.67 7.96 1.34 10 1 C10 1.66 10 2.32 10 3 C10.99 3 11.98 3 13 3 C13.66 3.33 14.32 3.66 15 4 C14.01 3.01 13.02 2.02 12 1 C13.32 0.67 14.64 0.34 16 0 C20 4.75 20 4.75 20 7 C20.99 7.33 21.98 7.66 23 8 C22.67 9.65 22.34 11.3 22 13 C22.99 13 23.98 13 25 13 C25.99 13.66 26.98 14.32 28 15 C27 17 27 17 24.625 17.9375 C22.04017895 18.98373709 20.7953831 19.92113535 19 22 C17.62567543 18.18243176 18.32024961 14.92744671 19 11 C18.195625 10.87625 17.39125 10.7525 16.5625 10.625 C15.716875 10.41875 14.87125 10.2125 14 10 C13.67 9.34 13.34 8.68 13 8 C10.69 8.33 8.38 8.66 6 9 C6.33 10.32 6.66 11.64 7 13 C6.01 13 5.02 13 4 13 C2.78005731 9.34017193 3.50973337 8.41884698 5 5 C5 4.34 5 3.68 5 3 C4.34 3 3.68 3 3 3 C3 3.66 3 4.32 3 5 C2.34 5 1.68 5 1 5 C0.67 3.35 0.34 1.7 0 0 Z " fill="#20180C" transform="translate(56,62)"/>
<path d="M0 0 C2 2 2 2 2 6 C1.34 6.66 0.68 7.32 0 8 C-0.16677282 11.58343976 -0.16677282 11.58343976 0 15 C0.99 15.33 1.98 15.66 3 16 C1.37308869 27.02446483 1.37308869 27.02446483 -3 31 C-3.99 31 -4.98 31 -6 31 C-6.66 29.35 -7.32 27.7 -8 26 C-8.66 26 -9.32 26 -10 26 C-10.66 23.03 -11.32 20.06 -12 17 C-9 17 -9 17 -7.3125 18.5 C-6.879375 18.995 -6.44625 19.49 -6 20 C-6 17.69 -6 15.38 -6 13 C-5.67 13 -5.34 13 -5 13 C-5 15.31 -5 17.62 -5 20 C-4.01 20 -3.02 20 -2 20 C-2 19.24074219 -2 18.48148438 -2 17.69921875 C-2 6 -2 6 0 3 C0 2.01 0 1.02 0 0 Z " fill="#4E4634" transform="translate(85,118)"/>
<path d="M0 0 C0.33 0.99 0.66 1.98 1 3 C3.79172239 4.03316488 3.79172239 4.03316488 7.0625 4.6875 C8.71958984 5.06455078 8.71958984 5.06455078 10.41015625 5.44921875 C11.26480469 5.63097656 12.11945312 5.81273438 13 6 C13.33 4.68 13.66 3.36 14 2 C14.99 2 15.98 2 17 2 C17.33 3.32 17.66 4.64 18 6 C16.35 6.66 14.7 7.32 13 8 C14.65 8 16.3 8 18 8 C17.42655063 10.86724686 17.1385485 11.8614515 15 14 C15 13.01 15 12.02 15 11 C14.236875 11.165 13.47375 11.33 12.6875 11.5 C8.18521551 12.33763432 5.26057777 11.5148721 1 10 C0.67 10.99 0.34 11.98 0 13 C-2.31 11.35 -4.62 9.7 -7 8 C-5.98823563 4.59679258 -5.35156418 3.24274669 -2.375 1.1875 C-1.59125 0.795625 -0.8075 0.40375 0 0 Z " fill="#181208" transform="translate(38,60)"/>
<path d="M0 0 C2.31 0.66 4.62 1.32 7 2 C7 3.32 7 4.64 7 6 C7.99 6.33 8.98 6.66 10 7 C11.61729417 10.67566856 11.06546005 15.07239675 11 19 C9.02 19.99 9.02 19.99 7 21 C6.01 20.34 5.02 19.68 4 19 C3.113125 18.505 2.22625 18.01 1.3125 17.5 C0.549375 17.005 -0.21375 16.51 -1 16 C-1 15.34 -1 14.68 -1 14 C-1.66 13.67 -2.32 13.34 -3 13 C-1.68 13 -0.36 13 1 13 C0.484375 12.21625 -0.03125 11.4325 -0.5625 10.625 C-1.036875 9.75875 -1.51125 8.8925 -2 8 C-1.67 7.34 -1.34 6.68 -1 6 C0.65 6.99 2.3 7.98 4 9 C4 7.35 4 5.7 4 4 C2.68 3.67 1.36 3.34 0 3 C0 2.01 0 1.02 0 0 Z " fill="#544C37" transform="translate(110,101)"/>
<path d="M0 0 C0.66 0 1.32 0 2 0 C2 1.65 2 3.3 2 5 C3.1446875 5.2165625 3.1446875 5.2165625 4.3125 5.4375 C7 6 7 6 10 7 C10.66 5.02 11.32 3.04 12 1 C13 3 13 3 12.0625 6.125 C11.711875 7.07375 11.36125 8.0225 11 9 C11.99 9 12.98 9 14 9 C14.33 10.65 14.66 12.3 15 14 C14.01 14 13.02 14 12 14 C12 16.31 12 18.62 12 21 C11.01 21.33 10.02 21.66 9 22 C9 20.68 9 19.36 9 18 C6.69 17.67 4.38 17.34 2 17 C2.33 16.4225 2.66 15.845 3 15.25 C4.27075898 12.80116138 4.27075898 12.80116138 4 9 C2.35 9 0.7 9 -1 9 C-0.67 6.03 -0.34 3.06 0 0 Z " fill="#282011" transform="translate(88,53)"/>
<path d="M0 0 C2 1.8125 2 1.8125 4 4 C4 4.99 4 5.98 4 7 C5.98 7 7.96 7 10 7 C9.01 7.495 9.01 7.495 8 8 C8 9.65 8 11.3 8 13 C6.68 12.67 5.36 12.34 4 12 C4.33 12.66 4.66 13.32 5 14 C5 14.99 5 15.98 5 17 C0.25 16.125 0.25 16.125 -2 15 C-2 14.01 -2 13.02 -2 12 C-2.66 12 -3.32 12 -4 12 C-4.66 10.35 -5.32 8.7 -6 7 C-5.195625 6.21625 -4.39125 5.4325 -3.5625 4.625 C-1.01309583 2.28017144 -1.01309583 2.28017144 0 0 Z " fill="#19160B" transform="translate(106,97)"/>
<path d="M0 0 C0.75410156 0.00451172 1.50820312 0.00902344 2.28515625 0.01367188 C4.14847127 0.02546501 6.01174555 0.04340058 7.875 0.0625 C7.56640625 1.953125 7.56640625 1.953125 6.875 4.0625 C3.8125 5.8125 3.8125 5.8125 0.875 7.0625 C0.875 6.4025 0.875 5.7425 0.875 5.0625 C-2.28615776 6.43233503 -3.1177092 7.0515638 -5.125 10.0625 C-6.445 9.4025 -7.765 8.7425 -9.125 8.0625 C-9.125 8.7225 -9.125 9.3825 -9.125 10.0625 C-10.445 9.7325 -11.765 9.4025 -13.125 9.0625 C-11.83200306 6.17812221 -10.46558637 4.19030579 -8.125 2.0625 C-8.785 1.7325 -9.445 1.4025 -10.125 1.0625 C-6.93675432 -0.53162284 -3.49603338 -0.03924735 0 0 Z " fill="#6E613C" transform="translate(136.125,63.9375)"/>
<path d="M0 0 C1.98 0 3.96 0 6 0 C6.59551568 5.71695055 5.40162446 8.69983599 2.2890625 13.49609375 C1.86367187 13.99238281 1.43828125 14.48867188 1 15 C0.34 15 -0.32 15 -1 15 C-1 15.66 -1 16.32 -1 17 C-1.66 17.33 -2.32 17.66 -3 18 C-2.67 18.66 -2.34 19.32 -2 20 C-2.66 20 -3.32 20 -4 20 C-4 20.66 -4 21.32 -4 22 C-4.66 22 -5.32 22 -6 22 C-6.33 21.01 -6.66 20.02 -7 19 C-7.45375 19.495 -7.9075 19.99 -8.375 20.5 C-10 22 -10 22 -12 22 C-12 21.01 -12 20.02 -12 19 C-12.66 18.67 -13.32 18.34 -14 18 C-13.01 18 -12.02 18 -11 18 C-11 17.34 -11 16.68 -11 16 C-9.35 15.34 -7.7 14.68 -6 14 C-5.34 14.66 -4.68 15.32 -4 16 C-3.3503125 14.7934375 -3.3503125 14.7934375 -2.6875 13.5625 C-1 11 -1 11 2 10 C2.33 8.02 2.66 6.04 3 4 C-1.455 5.485 -1.455 5.485 -6 7 C-6 6.01 -6 5.02 -6 4 C-4.02 3.34 -2.04 2.68 0 2 C0 1.34 0 0.68 0 0 Z " fill="#2A2315" transform="translate(123,17)"/>
<path d="M0 0 C5.8022175 -0.36263859 9.63999211 0.74315457 15 3 C15 3.99 15 4.98 15 6 C17.31 6.66 19.62 7.32 22 8 C22 8.99 22 9.98 22 11 C21.01 11.33 20.02 11.66 19 12 C19 11.01 19 10.02 19 9 C17.4221875 8.566875 17.4221875 8.566875 15.8125 8.125 C12 7 12 7 9.25 5.875 C6.93635616 4.81877687 6.93635616 4.81877687 4 5 C4.33 6.65 4.66 8.3 5 10 C5.99 10.33 6.98 10.66 8 11 C8.33 12.65 8.66 14.3 9 16 C10.98 16.33 12.96 16.66 15 17 C11.98968256 17.93423645 11.13349732 18.04449911 8 17 C7.67 16.01 7.34 15.02 7 14 C6.38125 13.773125 5.7625 13.54625 5.125 13.3125 C1.74095936 11.22235725 0.93483031 7.75348533 0 4 C0 2.68 0 1.36 0 0 Z " fill="#595039" transform="translate(30,17)"/>
<path d="M0 0 C0.33 0 0.66 0 1 0 C1.194441 5.3471275 0.73968218 9.92654466 -0.5625 15.1171875 C-1.07544505 17.0025208 -1.07544505 17.0025208 -1 19 C-1.64533078 21.33932406 -2.31060191 23.67328146 -3 26 C-4.98 25.67 -6.96 25.34 -9 25 C-9 25.66 -9 26.32 -9 27 C-8.01 27.33 -7.02 27.66 -6 28 C-7.8125 29.5625 -7.8125 29.5625 -10 31 C-10.99 30.67 -11.98 30.34 -13 30 C-12.505 29.1028125 -12.505 29.1028125 -12 28.1875 C-10.79212012 25.94613529 -10.79212012 25.94613529 -11 23 C-10.34 22.01 -9.68 21.02 -9 20 C-8.34 20 -7.68 20 -7 20 C-6.67 19.01 -6.34 18.02 -6 17 C-5.34 17 -4.68 17 -4 17 C-3.67 16.34 -3.34 15.68 -3 15 C-3.66 14.67 -4.32 14.34 -5 14 C-3.45730076 9.27934033 -1.92205381 4.58335908 0 0 Z " fill="#0E0702" transform="translate(107,74)"/>
<path d="M0 0 C4.875 4.75 4.875 4.75 6 7 C5.44140625 8.9453125 5.44140625 8.9453125 4.5625 11.125 C4.27503906 11.84945312 3.98757812 12.57390625 3.69140625 13.3203125 C3.46324219 13.87460938 3.23507813 14.42890625 3 15 C0.69 15.33 -1.62 15.66 -4 16 C-3.34 14.68 -2.68 13.36 -2 12 C-3.65 12.66 -5.3 13.32 -7 14 C-7 11.69 -7 9.38 -7 7 C-5.68 7 -4.36 7 -3 7 C-2.67 6.01 -2.34 5.02 -2 4 C-1.34 4 -0.68 4 0 4 C0 2.68 0 1.36 0 0 Z " fill="#231D14" transform="translate(52,97)"/>
<path d="M0 0 C0.66 0 1.32 0 2 0 C1.71572583 1.58467728 1.42225182 3.1677057 1.125 4.75 C0.96257812 5.63171875 0.80015625 6.5134375 0.6328125 7.421875 C0 10 0 10 -1.0703125 12.078125 C-2.29031018 14.2443155 -2.29031018 14.2443155 -2 18 C-2.66 18.66 -3.32 19.32 -4 20 C-4.99 20 -5.98 20 -7 20 C-7.33 20.99 -7.66 21.98 -8 23 C-8.33 22.01 -8.66 21.02 -9 20 C-8.34 19.01 -7.68 18.02 -7 17 C-7.7425 17.020625 -8.485 17.04125 -9.25 17.0625 C-11.70462279 17.00671312 -13.66109261 16.6930096 -16 16 C-16 15.34 -16 14.68 -16 14 C-16.66 14 -17.32 14 -18 14 C-17.67 12.68 -17.34 11.36 -17 10 C-9.25 11.875 -9.25 11.875 -7 13 C-4.94729537 11.15811388 -4.94729537 11.15811388 -4 9 C-3.34 9 -2.68 9 -2 9 C-1.855625 7.700625 -1.71125 6.40125 -1.5625 5.0625 C-1.125 1.125 -1.125 1.125 0 0 Z " fill="#7D714D" transform="translate(105,74)"/>
<path d="M0 0 C0.99 0.66 1.98 1.32 3 2 C3 2.66 3 3.32 3 4 C4.32 4.33 5.64 4.66 7 5 C5.68 5 4.36 5 3 5 C2.67 5.66 2.34 6.32 2 7 C1.67 7 1.34 7 1 7 C2.98 7.99 4.96 8.98 7 10 C4.14058377 12.85941623 0.96609544 13.51403574 -3 14 C-5.5 13.125 -5.5 13.125 -7 12 C-7 11.01 -7 10.02 -7 9 C-8.32 8.34 -9.64 7.68 -11 7 C-9.60804085 4.2160817 -7.84424221 4.02101003 -5 3 C-4.67 3.33 -4.34 3.66 -4 4 C-2.68 2.68 -1.36 1.36 0 0 Z " fill="#0B0502" transform="translate(66,73)"/>
<path d="M0 0 C3.375 -0.125 3.375 -0.125 7 0 C7.66 0.66 8.32 1.32 9 2 C8.01 3.485 8.01 3.485 7 5 C7.33 5.99 7.66 6.98 8 8 C7.87890625 10.26171875 7.87890625 10.26171875 7.5625 12.6875 C7.46066406 13.49574219 7.35882813 14.30398437 7.25390625 15.13671875 C7.17011719 15.75160156 7.08632812 16.36648437 7 17 C5.02 17 3.04 17 1 17 C0.77213542 15.01432292 0.54427083 13.02864583 0.31640625 11.04296875 C0.02829265 8.80603607 0.02829265 8.80603607 -1 6 C-0.34 6 0.32 6 1 6 C1 5.01 1 4.02 1 3 C0.34 3 -0.32 3 -1 3 C-0.67 2.01 -0.34 1.02 0 0 Z " fill="#0C0902" transform="translate(76,121)"/>
<path d="M0 0 C4.75 1.875 4.75 1.875 7 3 C6.67 3.99 6.34 4.98 6 6 C6.33 6.33 6.66 6.66 7 7 C7.33 5.35 7.66 3.7 8 2 C9.32 1.67 10.64 1.34 12 1 C11.979375 1.721875 11.95875 2.44375 11.9375 3.1875 C11.90918608 5.97918204 11.90918608 5.97918204 12.5625 8.5625 C13.01843224 11.10269391 12.80702504 12.57892488 12 15 C8.97580475 14.41196203 5.98241547 13.77321882 3 13 C2.67 11.68 2.34 10.36 2 9 C1.34 9 0.68 9 0 9 C0 8.34 0 7.68 0 7 C0.66 6.67 1.32 6.34 2 6 C1.67 5.34 1.34 4.68 1 4 C1.33 3.67 1.66 3.34 2 3 C1.34 2.01 0.68 1.02 0 0 Z " fill="#281E0D" transform="translate(70,88)"/>
<path d="M0 0 C0.61875 0.165 1.2375 0.33 1.875 0.5 C3.96063386 1.07634644 3.96063386 1.07634644 6 1 C6 1.99 6 2.98 6 4 C5.34 4 4.68 4 4 4 C3.67 4.66 3.34 5.32 3 6 C2.01 6 1.02 6 0 6 C-1.2077558 9.62326739 -0.54311128 10.64146369 1 14 C-1.31 14 -3.62 14 -6 14 C-6.33 14.99 -6.66 15.98 -7 17 C-7.99 16.67 -8.98 16.34 -10 16 C-10 15.34 -10 14.68 -10 14 C-10.99 14 -11.98 14 -13 14 C-13.33 13.01 -13.66 12.02 -14 11 C-12.906875 10.95875 -11.81375 10.9175 -10.6875 10.875 C-9.470625 10.58625 -8.25375 10.2975 -7 10 C-5.27487535 7.04990627 -5.27487535 7.04990627 -4 4 C-1.8125 3.125 -1.8125 3.125 0 3 C0 2.01 0 1.02 0 0 Z " fill="#171009" transform="translate(112,27)"/>
<path d="M0 0 C0.66 0 1.32 0 2 0 C2.33 1.65 2.66 3.3 3 5 C3.66 4.67 4.32 4.34 5 4 C6.4606285 6.64738916 7 7.89448334 7 11 C6.34 11 5.68 11 5 11 C5.33 14.63 5.66 18.26 6 22 C5.01 21.34 4.02 20.68 3 20 C3.33 20.99 3.66 21.98 4 23 C2.0625 22.625 2.0625 22.625 0 22 C-0.33 21.34 -0.66 20.68 -1 20 C-0.0625 17.875 -0.0625 17.875 1 16 C1.99 16 2.98 16 4 16 C4 15.34 4 14.68 4 14 C2.68 13.67 1.36 13.34 0 13 C0 12.34 0 11.68 0 11 C-0.66 11 -1.32 11 -2 11 C-1.34 7.37 -0.68 3.74 0 0 Z " fill="#120F07" transform="translate(77,11)"/>
<path d="M0 0 C3 1 3 1 4.16796875 2.70703125 C4.50441406 3.40183594 4.84085938 4.09664063 5.1875 4.8125 C5.53167969 5.49957031 5.87585938 6.18664062 6.23046875 6.89453125 C7 9 7 9 7 13 C6.01 13 5.02 13 4 13 C4 12.01 4 11.02 4 10 C3.38125 10.185625 2.7625 10.37125 2.125 10.5625 C0 11 0 11 -2 10 C-2.33 10.99 -2.66 11.98 -3 13 C-3.66 12.67 -4.32 12.34 -5 12 C-4.67 9.36 -4.34 6.72 -4 4 C-3.34 4 -2.68 4 -2 4 C-2 3.01 -2 2.02 -2 1 C-1.34 0.67 -0.68 0.34 0 0 Z " fill="#AD9A60" transform="translate(79,1)"/>
<path d="M0 0 C0.66 0 1.32 0 2 0 C2 0.66 2 1.32 2 2 C4.31 2.33 6.62 2.66 9 3 C9.33 2.01 9.66 1.02 10 0 C12 1.1875 12 1.1875 14 3 C14.25 5.6875 14.25 5.6875 14 8 C12.1875 8.625 12.1875 8.625 10 9 C9.01 8.34 8.02 7.68 7 7 C5.0103005 6.60986284 3.00980131 6.26797351 1 6 C1 6.66 1 7.32 1 8 C1.99 7.67 2.98 7.34 4 7 C4 7.66 4 8.32 4 9 C3.34 9 2.68 9 2 9 C2 9.66 2 10.32 2 11 C-0.4375 10.625 -0.4375 10.625 -3 10 C-3.33 9.34 -3.66 8.68 -4 8 C-3.34 7.67 -2.68 7.34 -2 7 C-1.26924352 4.6859378 -0.59861742 2.35171131 0 0 Z " fill="#140B04" transform="translate(87,79)"/>
<path d="M0 0 C1 3 1 3 0.3125 5 C-1.17951645 7.27354887 -2.83795869 8.37846902 -5 10 C-6.2516467 12.08334635 -6.2516467 12.08334635 -7 14 C-7.66 13.01 -8.32 12.02 -9 11 C-10.05270463 9.84188612 -10.05270463 9.84188612 -12 9 C-11.67 8.67 -11.34 8.34 -11 8 C-11.99 7.67 -12.98 7.34 -14 7 C-14 7.66 -14 8.32 -14 9 C-14.66 9 -15.32 9 -16 9 C-16 8.01 -16 7.02 -16 6 C-15.01257813 5.65066406 -14.02515625 5.30132812 -13.0078125 4.94140625 C-11.71351786 4.48183786 -10.41924833 4.02219877 -9.125 3.5625 C-8.47402344 3.33240234 -7.82304688 3.10230469 -7.15234375 2.86523438 C-3.51565978 1.57839884 -3.51565978 1.57839884 0 0 Z " fill="#B9AA7A" transform="translate(126,20)"/>
<path d="M0 0 C7.66666667 6.33333333 7.66666667 6.33333333 9 9 C12.41578604 9.77338552 14.99486537 10.31741094 18.375 9.25 C20.309697 8.00281178 20.309697 8.00281178 21 5 C22.62652316 3.29413425 24.29006566 1.6222454 26 0 C26.66 0.33 27.32 0.66 28 1 C27.67 1.99 27.34 2.98 27 4 C26.34 4 25.68 4 25 4 C24.690625 4.61875 24.38125 5.2375 24.0625 5.875 C23.375 7.25 22.6875 8.625 22 10 C21.01 10 20.02 10 19 10 C18.34 11.32 17.68 12.64 17 14 C14.36 13.67 11.72 13.34 9 13 C8.67 12.01 8.34 11.02 8 10 C7.01 9.67 6.02 9.34 5 9 C0 3.65116279 0 3.65116279 0 0 Z " fill="#9F936E" transform="translate(66,92)"/>
<path d="M0 0 C4.61866698 -0.31490911 6.45648356 0.1208929 10 3 C11.98014432 3.72351427 13.97821315 4.40265389 16 5 C15.67 5.99 15.34 6.98 15 8 C13.68 7.34 12.36 6.68 11 6 C10.67 6.66 10.34 7.32 10 8 C9.34 7.67 8.68 7.34 8 7 C8.33 8.32 8.66 9.64 9 11 C8.01 11.33 7.02 11.66 6 12 C5.67 10.35 5.34 8.7 5 7 C3.68 6.67 2.36 6.34 1 6 C0.67 4.02 0.34 2.04 0 0 Z " fill="#AC9B64" transform="translate(33,21)"/>
<path d="M0 0 C6.75 -0.125 6.75 -0.125 9 1 C8.67 2.65 8.34 4.3 8 6 C7.01 6.33 6.02 6.66 5 7 C4.34 6.34 3.68 5.68 3 5 C3.5259375 5.804375 3.5259375 5.804375 4.0625 6.625 C5.28924249 9.73274763 4.72856431 11.79431703 4 15 C2.02 14.34 0.04 13.68 -2 13 C-2 12.01 -2 11.02 -2 10 C-1.01 10 -0.02 10 1 10 C0.34 9.34 -0.32 8.68 -1 8 C-1.625 5.375 -1.625 5.375 -2 3 C-1.34 3 -0.68 3 0 3 C0 2.01 0 1.02 0 0 Z " fill="#3B3118" transform="translate(64,89)"/>
<path d="M0 0 C2.625 0.375 2.625 0.375 5 1 C6.231394 4.69418201 5.64432764 7.2056261 5 11 C4.01 10.34 3.02 9.68 2 9 C2.33 8.34 2.66 7.68 3 7 C1.6696875 7.3403125 1.6696875 7.3403125 0.3125 7.6875 C-3.61650483 8.05816083 -4.95893743 7.43285006 -8 5 C-8.33 4.01 -8.66 3.02 -9 2 C-6.66666667 2 -4.33333333 2 -2 2 C-1.34 1.34 -0.68 0.68 0 0 Z " fill="#433B28" transform="translate(81,59)"/>
<path d="M0 0 C1.65 0.33 3.3 0.66 5 1 C6 4 7 7 8 10 C8.66 10 9.32 10 10 10 C10 15.61 10 21.22 10 27 C8.68 27 7.36 27 6 27 C6.06960937 25.35451172 6.06960937 25.35451172 6.140625 23.67578125 C6.1781579 22.2213815 6.21455643 20.76695217 6.25 19.3125 C6.28351562 18.59126953 6.31703125 17.87003906 6.3515625 17.12695312 C6.44477151 12.02375984 5.54682261 9.87497352 2 6 C2 5.01 2 4.02 2 3 C1.01 3.33 0.02 3.66 -1 4 C-0.67 2.68 -0.34 1.36 0 0 Z " fill="#6F6959" transform="translate(46,34)"/>
<path d="M0 0 C0.66 0 1.32 0 2 0 C2.33 2.64 2.66 5.28 3 8 C3.66 8 4.32 8 5 8 C5 9.32 5 10.64 5 12 C5.69867188 11.97679688 6.39734375 11.95359375 7.1171875 11.9296875 C8.02726562 11.91164063 8.93734375 11.89359375 9.875 11.875 C11.23238281 11.84019531 11.23238281 11.84019531 12.6171875 11.8046875 C15 12 15 12 17 14 C16.21625 14.103125 15.4325 14.20625 14.625 14.3125 C11.66954819 14.77595022 11.66954819 14.77595022 10 18 C9.67 18.99 9.34 19.98 9 21 C2.91235459 15.32860385 1.24283185 7.98028869 0 0 Z " fill="#ADA073" transform="translate(53,75)"/>
<path d="M0 0 C-0.99 1.485 -0.99 1.485 -2 3 C-1.69159401 5.15274948 -1.69159401 5.15274948 -1 7 C-3.15964285 6.53721939 -4.96780167 6.01661849 -6.9375 5 C-9.27244296 3.86790644 -11.45719929 3.46841066 -14 3 C-14.66 2.67 -15.32 2.34 -16 2 C-16 1.34 -16 0.68 -16 0 C-14.27185839 -0.19672365 -12.54240803 -0.38196799 -10.8125 -0.5625 C-9.84957031 -0.66691406 -8.88664062 -0.77132812 -7.89453125 -0.87890625 C-5.05766623 -0.99758751 -2.74576329 -0.67765639 0 0 Z " fill="#D8C893" transform="translate(34,65)"/>
<path d="M0 0 C2.0625 0.4375 2.0625 0.4375 4 1 C-2.71471051 6.24074967 -9.9086863 5.37488712 -18 5 C-16.41796875 3.01171875 -16.41796875 3.01171875 -14 1 C-10.80078125 0.64453125 -10.80078125 0.64453125 -7.3125 0.8125 C-5.20918595 0.89906576 -3.10484699 0.96770807 -1 1 C-0.67 0.67 -0.34 0.34 0 0 Z " fill="#352F12" transform="translate(34,60)"/>
<path d="M0 0 C0.99 0 1.98 0 3 0 C3 0.99 3 1.98 3 3 C3.99 3 4.98 3 6 3 C6 2.34 6 1.68 6 1 C6.66 1 7.32 1 8 1 C8 1.99 8 2.98 8 4 C7.01 4 6.02 4 5 4 C5 8.95 5 13.9 5 19 C4.01 19 3.02 19 2 19 C2 16.36 2 13.72 2 11 C2.66 11 3.32 11 4 11 C3.01 9.02 2.02 7.04 1 5 C0.34 5.66 -0.32 6.32 -1 7 C-1.04254356 5.00045254 -1.04080783 2.99958364 -1 1 C-0.67 0.67 -0.34 0.34 0 0 Z " fill="#4C4639" transform="translate(80,11)"/>
<path d="M0 0 C1.32 0.33 2.64 0.66 4 1 C4 1.99 4 2.98 4 4 C4.66 4 5.32 4 6 4 C6.66 5.32 7.32 6.64 8 8 C6.35 8.66 4.7 9.32 3 10 C2.67 9.34 2.34 8.68 2 8 C1.34 8.66 0.68 9.32 0 10 C-1.32 9.34 -2.64 8.68 -4 8 C-2.66666667 5.33333333 -1.33333333 2.66666667 0 0 Z " fill="#8E7C56" transform="translate(78,79)"/>
<path d="M0 0 C0 0.66 0 1.32 0 2 C-3 4 -3 4 -6.0625 4.9375 C-9.27630502 5.7712102 -9.27630502 5.7712102 -11 9 C-13 8 -13 8 -15 5 C-14.30859375 3.046875 -14.30859375 3.046875 -13 1 C-10.72265625 0.390625 -10.72265625 0.390625 -8.0625 0.25 C-7.18722656 0.19328125 -6.31195313 0.1365625 -5.41015625 0.078125 C-3.6075296 0.01969302 -1.80357343 0 0 0 Z " fill="#A29369" transform="translate(142,65)"/>
<path d="M0 0 C0.33 0 0.66 0 1 0 C0.67 2.31 0.34 4.62 0 7 C-0.66 7 -1.32 7 -2 7 C-2.33 8.65 -2.66 10.3 -3 12 C-3.66 12 -4.32 12 -5 12 C-5.66 10.35 -6.32 8.7 -7 7 C-7.66 7 -8.32 7 -9 7 C-9 5.35 -9 3.7 -9 2 C-6.36 2.33 -3.72 2.66 -1 3 C-0.67 2.01 -0.34 1.02 0 0 Z " fill="#B9A571" transform="translate(84,137)"/>
<path d="M0 0 C1.258125 -0.04125 2.51625 -0.0825 3.8125 -0.125 C4.52019531 -0.14820313 5.22789063 -0.17140625 5.95703125 -0.1953125 C8 0 8 0 11 2 C8.69 2.33 6.38 2.66 4 3 C4 3.66 4 4.32 4 5 C4.66 5.33 5.32 5.66 6 6 C5.67 7.32 5.34 8.64 5 10 C4.34 10 3.68 10 3 10 C3 9.34 3 8.68 3 8 C0.69 7.34 -1.62 6.68 -4 6 C-3 4 -3 4 -1 3 C-0.67 2.01 -0.34 1.02 0 0 Z " fill="#0C0803" transform="translate(117,63)"/>
<path d="M0 0 C1.32 0.33 2.64 0.66 4 1 C3.67 2.98 3.34 4.96 3 7 C2.360625 7.12375 1.72125 7.2475 1.0625 7.375 C0.381875 7.58125 -0.29875 7.7875 -1 8 C-1.33 8.66 -1.66 9.32 -2 10 C-2.33 8.68 -2.66 7.36 -3 6 C-3.66 6 -4.32 6 -5 6 C-5.33 5.34 -5.66 4.68 -6 4 C-8.52733235 3.34444881 -8.52733235 3.34444881 -11 3 C-10.67 2.34 -10.34 1.68 -10 1 C-7.36 1.33 -4.72 1.66 -2 2 C-2 3.32 -2 4.64 -2 6 C-1.34 5.67 -0.68 5.34 0 5 C0 3.35 0 1.7 0 0 Z " fill="#7A7057" transform="translate(99,69)"/>
<path d="M0 0 C6.70518586 -0.19818283 12.65176798 -0.30844801 19 2 C19 2.66 19 3.32 19 4 C13.39 4 7.78 4 2 4 C2 3.34 2 2.68 2 2 C1.34 2 0.68 2 0 2 C0 1.34 0 0.68 0 0 Z " fill="#362D14" transform="translate(123,60)"/>
<path d="M0 0 C0.66 0.33 1.32 0.66 2 1 C1.67 1.66 1.34 2.32 1 3 C3.12364481 3.22609337 3.12364481 3.22609337 4.625 1.5 C5.07875 1.005 5.5325 0.51 6 0 C6.99 0.33 7.98 0.66 9 1 C9 2.65 9 4.3 9 6 C8.34 5.01 7.68 4.02 7 3 C5.93453047 6.1964086 5.92572162 8.65747276 6 12 C1.125 7.375 1.125 7.375 0 4 C-1.65 4 -3.3 4 -5 4 C-5 3.34 -5 2.68 -5 2 C-2.625 0.9375 -2.625 0.9375 0 0 Z " fill="#4D4837" transform="translate(102,40)"/>
<path d="M0 0 C1.32 1.32 2.64 2.64 4 4 C3.01 6.64 2.02 9.28 1 12 C-1.31 12.33 -3.62 12.66 -6 13 C-5.360625 12.0925 -4.72125 11.185 -4.0625 10.25 C-2.34728488 7.54723678 -1.52401871 6.03930851 -1 3 C-0.67 2.01 -0.34 1.02 0 0 Z " fill="#090501" transform="translate(54,100)"/>
<path d="M0 0 C0.33 0 0.66 0 1 0 C0.979375 1.11375 0.95875 2.2275 0.9375 3.375 C0.73619282 6.83215921 0.73619282 6.83215921 2 9 C1.67 9.66 1.34 10.32 1 11 C-0.093125 10.67 -1.18625 10.34 -2.3125 10 C-5.84578884 8.86913351 -5.84578884 8.86913351 -9 9 C-9 8.01 -9 7.02 -9 6 C-7.68 5.67 -6.36 5.34 -5 5 C-5 4.01 -5 3.02 -5 2 C-3.35 2.33 -1.7 2.66 0 3 C0 2.01 0 1.02 0 0 Z " fill="#5E5238" transform="translate(74,73)"/>
<path d="M0 0 C0.33 0 0.66 0 1 0 C1 2.31 1 4.62 1 7 C1.99 7 2.98 7 4 7 C4 6.01 4 5.02 4 4 C4.99 4 5.98 4 7 4 C6.42655063 6.86724686 6.1385485 7.8614515 4 10 C1.66117862 9.70764733 -0.67284 9.37400786 -3 9 C-3.99 9.495 -3.99 9.495 -5 10 C-5.33 8.02 -5.66 6.04 -6 4 C-3 4 -3 4 -1.3125 5.5 C-0.879375 5.995 -0.44625 6.49 0 7 C0 4.69 0 2.38 0 0 Z " fill="#796B40" transform="translate(79,131)"/>
<path d="M0 0 C0.66 0 1.32 0 2 0 C2 1.32 2 2.64 2 4 C5.63 4 9.26 4 13 4 C13 2.68 13 1.36 13 0 C13.66 0 14.32 0 15 0 C15 1.65 15 3.3 15 5 C14.01 5.495 14.01 5.495 13 6 C12.01 7.485 12.01 7.485 11 9 C10.34 8.34 9.68 7.68 9 7 C7.02 7.66 5.04 8.32 3 9 C2.34 8.34 1.68 7.68 1 7 C1.66 7 2.32 7 3 7 C3 6.34 3 5.68 3 5 C2.34 5 1.68 5 1 5 C0.67 3.35 0.34 1.7 0 0 Z " fill="#9D9473" transform="translate(72,111)"/>
<path d="M0 0 C1.98 0 3.96 0 6 0 C6.33 0.99 6.66 1.98 7 3 C7.66 3 8.32 3 9 3 C8.67 3.99 8.34 4.98 8 6 C5.4375 7.1875 5.4375 7.1875 3 8 C3 7.34 3 6.68 3 6 C1.68 5.67 0.36 5.34 -1 5 C-0.34 5 0.32 5 1 5 C0.67 3.35 0.34 1.7 0 0 Z " fill="#453A23" transform="translate(87,72)"/>
<path d="M0 0 C1.41623216 -0.05447047 2.83308191 -0.09300508 4.25 -0.125 C5.03890625 -0.14820312 5.8278125 -0.17140625 6.640625 -0.1953125 C9.20731941 0.0171622 10.7916067 0.71345895 13 2 C13 2.99 13 3.98 13 5 C15.31 5.66 17.62 6.32 20 7 C20 7.99 20 8.98 20 10 C19.01 10.33 18.02 10.66 17 11 C17 10.01 17 9.02 17 8 C14.69 7.34 12.38 6.68 10 6 C10 5.01 10 4.02 10 3 C6.7 2.34 3.4 1.68 0 1 C0 0.67 0 0.34 0 0 Z " fill="#483F29" transform="translate(32,18)"/>
<path d="M0 0 C0.33 0 0.66 0 1 0 C1 2.31 1 4.62 1 7 C4.61029169 7 7.55806676 6.03907418 11 5 C11 5.99 11 6.98 11 8 C9.75336669 8.50833591 8.50250613 9.00631145 7.25 9.5 C6.55390625 9.7784375 5.8578125 10.056875 5.140625 10.34375 C3 11 3 11 -1 11 C-2.35439668 8.29120665 -2.06501451 5.99066732 -2 3 C-1.34 3 -0.68 3 0 3 C0 2.01 0 1.02 0 0 Z " fill="#5D533A" transform="translate(40,111)"/>
<path d="M0 0 C0.33 1.32 0.66 2.64 1 4 C1.66 4 2.32 4 3 4 C2.67 5.32 2.34 6.64 2 8 C-0.97 7.01 -3.94 6.02 -7 5 C-7 4.34 -7 3.68 -7 3 C-7.66 2.67 -8.32 2.34 -9 2 C-2.25 0 -2.25 0 0 0 Z " fill="#C4B47D" transform="translate(116,112)"/>
<path d="M0 0 C1.65 0.33 3.3 0.66 5 1 C5 1.66 5 2.32 5 3 C4.01 3.33 3.02 3.66 2 4 C1.19787372 5.87387216 1.19787372 5.87387216 0.8125 8.0625 C0.65394531 8.79597656 0.49539062 9.52945313 0.33203125 10.28515625 C0.22246094 10.85105469 0.11289063 11.41695312 0 12 C-3 11 -3 11 -5 9 C-5 8.01 -5 7.02 -5 6 C-4.01 5.67 -3.02 5.34 -2 5 C-0.78130071 2.49552484 -0.78130071 2.49552484 0 0 Z " fill="#322918" transform="translate(103,71)"/>
<path d="M0 0 C1.70884005 1.62339805 3.37446717 3.29319053 5 5 C5 5.66 5 6.32 5 7 C9.21878192 7.19622241 12.17010894 6.80230168 16 5 C15.505 5.433125 15.01 5.86625 14.5 6.3125 C12.66781808 7.99740483 12.66781808 7.99740483 13 11 C4.7992278 9.98366498 4.7992278 9.98366498 1.5625 6 C1.046875 5.01 0.53125 4.02 0 3 C-0.66 2.34 -1.32 1.68 -2 1 C-1.34 0.67 -0.68 0.34 0 0 Z " fill="#6E6B5D" transform="translate(50,28)"/>
<path d="M0 0 C0 0.66 0 1.32 0 2 C0.99 2 1.98 2 3 2 C3 2.66 3 3.32 3 4 C-1.455 5.485 -1.455 5.485 -6 7 C-7.03864166 3.88407501 -7.09036928 2.9737344 -6 0 C-3.50907189 -1.24546405 -2.58919267 -0.7767578 0 0 Z " fill="#A19156" transform="translate(47,113)"/>
<path d="M0 0 C1.32 0 2.64 0 4 0 C4.33 1.32 4.66 2.64 5 4 C4.01 4.495 4.01 4.495 3 5 C4.65 5 6.3 5 8 5 C7.67 5.99 7.34 6.98 7 8 C5.68 8 4.36 8 3 8 C2.67 8.99 2.34 9.98 2 11 C1.01 10.34 0.02 9.68 -1 9 C-0.67 6.03 -0.34 3.06 0 0 Z " fill="#120903" transform="translate(104,62)"/>
<path d="M0 0 C1.32 0.66 2.64 1.32 4 2 C3.01 2.66 2.02 3.32 1 4 C1.99 4.33 2.98 4.66 4 5 C4 5.99 4 6.98 4 8 C4.66 8.33 5.32 8.66 6 9 C5.25 10.9375 5.25 10.9375 4 13 C1.875 13.75 1.875 13.75 0 14 C0.020625 12.9275 0.04125 11.855 0.0625 10.75 C0.14516436 7.21993579 0.14516436 7.21993579 -0.5625 4.75 C-1 3 -1 3 0 0 Z " fill="#453F29" transform="translate(82,88)"/>
<path d="M0 0 C1.64826111 2.96687001 2.44271087 5.65626525 3 9 C2.34 9 1.68 9 1 9 C0.87625 9.639375 0.7525 10.27875 0.625 10.9375 C0.41875 11.618125 0.2125 12.29875 0 13 C-0.99 13.495 -0.99 13.495 -2 14 C-3.18149786 8.22378823 -2.7500904 5.13350208 0 0 Z " fill="#0E0C07" transform="translate(109,42)"/>
<path d="M0 0 C0.66 0.99 1.32 1.98 2 3 C1.125 5.6875 1.125 5.6875 0 8 C-0.99 8 -1.98 8 -3 8 C-2.67 9.32 -2.34 10.64 -2 12 C-4.97 11.67 -7.94 11.34 -11 11 C-11 10.01 -11 9.02 -11 8 C-6.25 7 -6.25 7 -4 7 C-3.01 6.67 -2.02 6.34 -1 6 C-0.67 4.02 -0.34 2.04 0 0 Z " fill="#252016" transform="translate(88,110)"/>
<path d="M0 0 C1.65 0 3.3 0 5 0 C5.33 1.98 5.66 3.96 6 6 C3 8 3 8 0 8 C0.33 6.68 0.66 5.36 1 4 C0.34 4 -0.32 4 -1 4 C-1 4.66 -1 5.32 -1 6 C-1.66 6 -2.32 6 -3 6 C-2 4 -1 2 0 0 Z " fill="#39301B" transform="translate(91,96)"/>
<path d="M0 0 C0.66 0 1.32 0 2 0 C3 1 4 2 5 3 C5.845625 3.495 6.69125 3.99 7.5625 4.5 C10 6 10 6 12 9 C10.68 8.67 9.36 8.34 8 8 C7.77390663 10.12364481 7.77390663 10.12364481 9.5 11.625 C10.2425 12.305625 10.2425 12.305625 11 13 C9.35 12.67 7.7 12.34 6 12 C5.7525 11.113125 5.505 10.22625 5.25 9.3125 C3.95961743 5.8929862 2.35994911 3.75327396 0 1 C0 0.67 0 0.34 0 0 Z " fill="#100902" transform="translate(55,92)"/>
<path d="M0 0 C5.75 -0.125 5.75 -0.125 8 1 C7 4 7 4 4 6 C2.80767387 8.05003955 2.80767387 8.05003955 2 10 C0.68 9.67 -0.64 9.34 -2 9 C-2 8.01 -2 7.02 -2 6 C-1.34 6 -0.68 6 0 6 C0 6.66 0 7.32 0 8 C0.66 8 1.32 8 2 8 C1.47731534 5.23723823 0.89130413 2.6739124 0 0 Z " fill="#342C21" transform="translate(120,65)"/>
<path d="M0 0 C1.65 0.33 3.3 0.66 5 1 C5 1.66 5 2.32 5 3 C6.32 3.33 7.64 3.66 9 4 C9 4.99 9 5.98 9 7 C7.9275 6.690625 6.855 6.38125 5.75 6.0625 C3.17133778 5.33187904 0.60487898 4.62517096 -2 4 C-1.34 2.68 -0.68 1.36 0 0 Z " fill="#A69B73" transform="translate(65,69)"/>
<path d="M0 0 C0.33 1.32 0.66 2.64 1 4 C0.34 4 -0.32 4 -1 4 C-1.33 5.32 -1.66 6.64 -2 8 C-3.32 7.67 -4.64 7.34 -6 7 C-6 8.65 -6 10.3 -6 12 C-7.32 12.33 -8.64 12.66 -10 13 C-9.67 10.69 -9.34 8.38 -9 6 C-6.03 5.01 -3.06 4.02 0 3 C0 2.01 0 1.02 0 0 Z " fill="#534B40" transform="translate(51,97)"/>
<path d="M0 0 C1.32 0.33 2.64 0.66 4 1 C4 2.32 4 3.64 4 5 C4.66 5.33 5.32 5.66 6 6 C4.1875 7.5625 4.1875 7.5625 2 9 C1.01 8.67 0.02 8.34 -1 8 C-0.67 7.34 -0.34 6.68 0 6 C-0.66 6 -1.32 6 -2 6 C-2.33 5.34 -2.66 4.68 -3 4 C-2.01 2.68 -1.02 1.36 0 0 Z " fill="#1C170C" transform="translate(88,61)"/>
<path d="M0 0 C0.99 0 1.98 0 3 0 C2.01 3.3 1.02 6.6 0 10 C-2.31 9.67 -4.62 9.34 -7 9 C-7.33 7.68 -7.66 6.36 -8 5 C-5.525 5.495 -5.525 5.495 -3 6 C-3 5.34 -3 4.68 -3 4 C-2.01 3.67 -1.02 3.34 0 3 C0 2.01 0 1.02 0 0 Z " fill="#3C382F" transform="translate(63,35)"/>
<path d="M0 0 C3.57575896 0 5.05295935 1.08840607 8 3 C7 5 7 5 4.625 5.9375 C2.04017895 6.98373709 0.7953831 7.92113535 -1 10 C-1.625 8.1875 -1.625 8.1875 -2 6 C-1.34 5.01 -0.68 4.02 0 3 C0 2.01 0 1.02 0 0 Z " fill="#2F210E" transform="translate(76,74)"/>
<path d="M0 0 C0.763125 0.061875 1.52625 0.12375 2.3125 0.1875 C3.74338528 3.04927057 2.91241697 5.12125773 2.3125 8.1875 C-0.3275 6.5375 -2.9675 4.8875 -5.6875 3.1875 C-2.6875 0.1875 -2.6875 0.1875 0 0 Z " fill="#2B2216" transform="translate(36.6875,64.8125)"/>
<path d="M0 0 C0.66 0 1.32 0 2 0 C2 1.65 2 3.3 2 5 C3.65 5.33 5.3 5.66 7 6 C6.67 8.31 6.34 10.62 6 13 C5.34 13 4.68 13 4 13 C4 11.68 4 10.36 4 9 C2.35 9 0.7 9 -1 9 C-0.67 6.03 -0.34 3.06 0 0 Z " fill="#2E2A22" transform="translate(88,53)"/>
<path d="M0 0 C1.875 0.125 1.875 0.125 4 1 C7.11693895 4.97678418 7.11693895 4.97678418 6.75 8.1875 C6.21535034 9.47957 5.62534713 10.74930575 5 12 C4.34 12 3.68 12 3 12 C3 10.02 3 8.04 3 6 C2.34 6.66 1.68 7.32 1 8 C1.04125 7.21625 1.0825 6.4325 1.125 5.625 C1.28728734 2.83883881 1.28728734 2.83883881 -1 1 C-0.67 0.67 -0.34 0.34 0 0 Z " fill="#19140C" transform="translate(98,43)"/>
<path d="M0 0 C1.31571603 0.2547514 2.62760376 0.52934141 3.9375 0.8125 C4.66839844 0.96332031 5.39929688 1.11414063 6.15234375 1.26953125 C6.76207031 1.51058594 7.37179688 1.75164062 8 2 C8.33 2.99 8.66 3.98 9 5 C8.01 5.66 7.02 6.32 6 7 C5.01 5.68 4.02 4.36 3 3 C3.33 3.99 3.66 4.98 4 6 C3.34 6.66 2.68 7.32 2 8 C1.34 7.67 0.68 7.34 0 7 C0 6.34 0 5.68 0 5 C-0.66 4.67 -1.32 4.34 -2 4 C-1.34 4 -0.68 4 0 4 C0 2.68 0 1.36 0 0 Z " fill="#4B422C" transform="translate(76,105)"/>
<path d="M0 0 C0.99 0.66 1.98 1.32 3 2 C3 2.66 3 3.32 3 4 C4.32 4.33 5.64 4.66 7 5 C5.68 5 4.36 5 3 5 C2.67 5.66 2.34 6.32 2 7 C1.01 6.67 0.02 6.34 -1 6 C-1 6.99 -1 7.98 -1 9 C-1.99 8.67 -2.98 8.34 -4 8 C-4 4.09161134 -2.49432124 2.88405893 0 0 Z " fill="#292715" transform="translate(66,73)"/>
<path d="M0 0 C0.33 0 0.66 0 1 0 C1 1.65 1 3.3 1 5 C-0.98 5.33 -2.96 5.66 -5 6 C-5 6.99 -5 7.98 -5 9 C-4.34 9.33 -3.68 9.66 -3 10 C-3.639375 10.103125 -4.27875 10.20625 -4.9375 10.3125 C-5.9584375 10.6528125 -5.9584375 10.6528125 -7 11 C-7.33 11.99 -7.66 12.98 -8 14 C-8.66 13.34 -9.32 12.68 -10 12 C-9.34 12 -8.68 12 -8 12 C-7.95875 10.906875 -7.9175 9.81375 -7.875 8.6875 C-7.441875 6.8621875 -7.441875 6.8621875 -7 5 C-4 3.1875 -4 3.1875 -1 2 C-0.67 1.34 -0.34 0.68 0 0 Z " fill="#4E4635" transform="translate(115,20)"/>
<path d="M0 0 C0.66 0 1.32 0 2 0 C2.33 1.65 2.66 3.3 3 5 C3.66 4.67 4.32 4.34 5 4 C5.66 5.98 6.32 7.96 7 10 C5.02 10.33 3.04 10.66 1 11 C-0.17571451 7.32589215 -0.07366746 3.83070817 0 0 Z " fill="#0D0801" transform="translate(77,11)"/>
<path d="M0 0 C1.65 0.33 3.3 0.66 5 1 C5.33 1.99 5.66 2.98 6 4 C8.00016466 5.20882096 8.00016466 5.20882096 10 6 C6.86650268 7.04449911 6.01031744 6.93423645 3 6 C3 5.34 3 4.68 3 4 C1.02 4.33 -0.96 4.66 -3 5 C-2.01 3.35 -1.02 1.7 0 0 Z " fill="#342B13" transform="translate(85,102)"/>
<path d="M0 0 C1.65 0 3.3 0 5 0 C5 1.32 5 2.64 5 4 C5.66 4 6.32 4 7 4 C7.33 3.01 7.66 2.02 8 1 C10.64 0.67 13.28 0.34 16 0 C16.33 0.66 16.66 1.32 17 2 C15.865625 2.309375 14.73125 2.61875 13.5625 2.9375 C10.21224901 3.62924531 10.21224901 3.62924531 9 5 C7.33382885 5.04063832 5.66611905 5.042721 4 5 C3.896875 4.360625 3.79375 3.72125 3.6875 3.0625 C3.460625 2.381875 3.23375 1.70125 3 1 C2.01 0.67 1.02 0.34 0 0 Z " fill="#4B4638" transform="translate(105,61)"/>
<path d="M0 0 C-0.020625 0.721875 -0.04125 1.44375 -0.0625 2.1875 C-0.10133409 4.98398199 -0.10133409 4.98398199 0.625 7.5625 C1.06726757 10.43723921 0.52311004 11.58094287 -1 14 C-1.33 13.67 -1.66 13.34 -2 13 C-1.71269945 10.66055264 -1.38063221 8.3260857 -1 6 C-1.99 6 -2.98 6 -4 6 C-4 4.35 -4 2.7 -4 1 C-2 0 -2 0 0 0 Z " fill="#170F06" transform="translate(82,89)"/>
<path d="M0 0 C3 1 3 1 4.6875 3.125 C6.76742206 5.20414158 6.76742206 5.20414158 9.03515625 5.0390625 C11.03640719 4.77787631 13.02096966 4.39580607 15 4 C15.33 4.66 15.66 5.32 16 6 C11.02936879 6.91297308 6.97063121 6.91297308 2 6 C2 4.68 2 3.36 2 2 C1.34 2 0.68 2 0 2 C0 1.34 0 0.68 0 0 Z " fill="#584D32" transform="translate(56,81)"/>
<path d="M0 0 C2.64 0.33 5.28 0.66 8 1 C7.67 1.99 7.34 2.98 7 4 C5.68 4 4.36 4 3 4 C3 4.99 3 5.98 3 7 C2.34 7 1.68 7 1 7 C-1 4 -1 4 -0.625 1.8125 C-0.41875 1.214375 -0.2125 0.61625 0 0 Z " fill="#120904" transform="translate(53,37)"/>
<path d="M0 0 C0.66 0 1.32 0 2 0 C0.25740319 10.55808656 0.25740319 10.55808656 -3 15 C-3.66 14.34 -4.32 13.68 -5 13 C-4.625 10.875 -4.625 10.875 -4 9 C-3.34 9 -2.68 9 -2 9 C-1.7834375 7.0509375 -1.7834375 7.0509375 -1.5625 5.0625 C-1.125 1.125 -1.125 1.125 0 0 Z " fill="#968C6C" transform="translate(105,74)"/>
<path d="M0 0 C0.66 0 1.32 0 2 0 C2 0.66 2 1.32 2 2 C2.60328125 2.01417969 3.2065625 2.02835937 3.828125 2.04296875 C10.4373928 2.4373928 10.4373928 2.4373928 13.5625 5.5625 C14.036875 6.366875 14.51125 7.17125 15 8 C14.01 8.33 13.02 8.66 12 9 C11.34 8.01 10.68 7.02 10 6 C7.66752239 5.66073053 5.33414529 5.32759934 3 5 C1.0625 3.5625 1.0625 3.5625 0 2 C0 1.34 0 0.68 0 0 Z " fill="#716649" transform="translate(16,65)"/>
<path d="M0 0 C0.99 0 1.98 0 3 0 C3.66 1.65 4.32 3.3 5 5 C3.35 6.32 1.7 7.64 0 9 C-1.125 6.1875 -1.125 6.1875 -2 3 C-1.34 2.01 -0.68 1.02 0 0 Z " fill="#2B2617" transform="translate(78,54)"/>
<path d="M0 0 C2.31 0 4.62 0 7 0 C7.33 0.99 7.66 1.98 8 3 C7.34 3 6.68 3 6 3 C6.33 4.32 6.66 5.64 7 7 C6.01 7.33 5.02 7.66 4 8 C3.67 6.35 3.34 4.7 3 3 C2.01 3 1.02 3 0 3 C0 2.01 0 1.02 0 0 Z " fill="#CCBB87" transform="translate(35,25)"/>
<path d="M0 0 C0.99 0.99 1.98 1.98 3 3 C0.9927092 6.0109362 0.16115776 6.63016497 -3 8 C-3.99 7.01 -4.98 6.02 -6 5 C-5.38125 4.9175 -4.7625 4.835 -4.125 4.75 C-1.81562433 4.18741541 -1.81562433 4.18741541 -0.75 1.9375 C-0.5025 1.298125 -0.255 0.65875 0 0 Z " fill="#0C0905" transform="translate(98,106)"/>
<path d="M0 0 C0.33 0 0.66 0 1 0 C1.27842482 5.47568821 1.27409341 8.41626922 -2 13 C-2.33 13.99 -2.66 14.98 -3 16 C-3.66 15.34 -4.32 14.68 -5 14 C-3.45730076 9.27934033 -1.92205381 4.58335908 0 0 Z " fill="#1C1307" transform="translate(107,74)"/>
<path d="M0 0 C0.99 0.33 1.98 0.66 3 1 C3.66 0.67 4.32 0.34 5 0 C6.125 4.75 6.125 4.75 5 7 C5.39938767 9.09821215 5.39938767 9.09821215 6 11 C5.34 11 4.68 11 4 11 C3.32591692 9.73308493 2.66099503 8.46129251 2 7.1875 C1.62875 6.47980469 1.2575 5.77210937 0.875 5.04296875 C0 3 0 3 0 0 Z " fill="#1F1A17" transform="translate(55,47)"/>
<path d="M0 0 C0.66 0 1.32 0 2 0 C1.67 1.32 1.34 2.64 1 4 C-1.89234315 4.82638376 -3.88742431 5 -7 5 C-6.34 6.32 -5.68 7.64 -5 9 C-5.99 8.67 -6.98 8.34 -8 8 C-8.6875 5.9375 -8.6875 5.9375 -9 4 C-5.62902617 2.50178941 -3.79557881 2 0 2 C0 1.34 0 0.68 0 0 Z " fill="#716D5B" transform="translate(105,33)"/>
<path d="M0 0 C1.010625 0.0825 2.02125 0.165 3.0625 0.25 C3.7225 1.24 4.3825 2.23 5.0625 3.25 C0.3125 4.375 0.3125 4.375 -1.9375 3.25 C-2.2675 4.24 -2.5975 5.23 -2.9375 6.25 C-3.5975 5.92 -4.2575 5.59 -4.9375 5.25 C-3.82553359 0.32557733 -3.82553359 0.32557733 0 0 Z " fill="#C9B77D" transform="translate(78.9375,7.75)"/>
<path d="M0 0 C1.32 0 2.64 0 4 0 C3.34 1.65 2.68 3.3 2 5 C2.66 5 3.32 5 4 5 C4 5.99 4 6.98 4 8 C3.34 8 2.68 8 2 8 C2.33 9.65 2.66 11.3 3 13 C0.58304249 10.58304249 0.54038332 9.31949753 0 6 C-0.20625 5.0925 -0.4125 4.185 -0.625 3.25 C-0.74875 2.5075 -0.8725 1.765 -1 1 C-0.67 0.67 -0.34 0.34 0 0 Z " fill="#494437" transform="translate(73,119)"/>
<path d="M0 0 C0.66 0.33 1.32 0.66 2 1 C-0.39509338 3.89932357 -2.31245243 4.50168276 -6 5 C-6 5.66 -6 6.32 -6 7 C-8.475 6.01 -8.475 6.01 -11 5 C-10.34 4.01 -9.68 3.02 -9 2 C-8.443125 2.226875 -7.88625 2.45375 -7.3125 2.6875 C-4.09447789 3.12236785 -2.67610793 1.69017343 0 0 Z " fill="#1C150B" transform="translate(143,67)"/>
<path d="M0 0 C2.125 0.375 2.125 0.375 4 1 C-2.42623846 5.78231699 -8.18501571 5.42306682 -16 5 C-12.09867132 2.74993136 -8.66214723 2.60606215 -4.2421875 2.34375 C-1.80137133 2.19589526 -1.80137133 2.19589526 0 0 Z " fill="#736A41" transform="translate(34,60)"/>
<path d="M0 0 C1.32 0 2.64 0 4 0 C3.6875 1.875 3.6875 1.875 3 4 C0 6 0 6 -2 6 C-2.66 6.66 -3.32 7.32 -4 8 C-3.67 6.02 -3.34 4.04 -3 2 C-2.67 2.66 -2.34 3.32 -2 4 C-1.34 2.68 -0.68 1.36 0 0 Z " fill="#271C0C" transform="translate(88,91)"/>
<path d="M0 0 C0.66 0 1.32 0 2 0 C1.67 2.64 1.34 5.28 1 8 C1.99 7.67 2.98 7.34 4 7 C4 7.66 4 8.32 4 9 C3.34 9 2.68 9 2 9 C2 9.66 2 10.32 2 11 C-0.4375 10.625 -0.4375 10.625 -3 10 C-3.33 9.34 -3.66 8.68 -4 8 C-3.34 7.67 -2.68 7.34 -2 7 C-1.26924352 4.6859378 -0.59861742 2.35171131 0 0 Z " fill="#2C1F09" transform="translate(87,79)"/>
<path d="M0 0 C5.67177385 -0.45374191 8.5975268 0.34916857 13 4 C13 4.66 13 5.32 13 6 C12.01 6.33 11.02 6.66 10 7 C9.7525 6.360625 9.505 5.72125 9.25 5.0625 C8.19229237 2.86855756 8.19229237 2.86855756 6.125 2.1875 C3.82969717 1.98497328 2.18266076 2.29843047 0 3 C0 2.01 0 1.02 0 0 Z " fill="#4A4738" transform="translate(85,31)"/>
<path d="M0 0 C3.465 1.98 3.465 1.98 7 4 C7 3.34 7 2.68 7 2 C7.99 2.33 8.98 2.66 10 3 C10 4.98 10 6.96 10 9 C9.34 7.68 8.68 6.36 8 5 C6.35 5.66 4.7 6.32 3 7 C0 2.25 0 2.25 0 0 Z " fill="#897D53" transform="translate(108,107)"/>
<path d="M0 0 C6.75 -0.125 6.75 -0.125 9 1 C8.67 2.65 8.34 4.3 8 6 C7.01 6.33 6.02 6.66 5 7 C4.67 5.68 4.34 4.36 4 3 C2.68 2.67 1.36 2.34 0 2 C0 1.34 0 0.68 0 0 Z " fill="#504226" transform="translate(64,89)"/>
<path d="M0 0 C3.465 1.485 3.465 1.485 7 3 C4.04816899 5.95183101 1.04488053 6.08663988 -3 7 C-3.66 6.01 -4.32 5.02 -5 4 C-4.0409375 3.8453125 -4.0409375 3.8453125 -3.0625 3.6875 C-2.381875 3.460625 -1.70125 3.23375 -1 3 C-0.67 2.01 -0.34 1.02 0 0 Z " fill="#251B0D" transform="translate(66,80)"/>
<path d="M0 0 C0.66 0 1.32 0 2 0 C2.33 0.66 2.66 1.32 3 2 C3.99 2.33 4.98 2.66 6 3 C6 3.66 6 4.32 6 5 C5.01 5.33 4.02 5.66 3 6 C2.01 7.485 2.01 7.485 1 9 C0.34 8.34 -0.32 7.68 -1 7 C-0.625 3.375 -0.625 3.375 0 0 Z " fill="#4C4637" transform="translate(75,22)"/>
<path d="M0 0 C0.33 0 0.66 0 1 0 C0.67 2.31 0.34 4.62 0 7 C-1.32 6.67 -2.64 6.34 -4 6 C-4.33 6.66 -4.66 7.32 -5 8 C-6.32 6.68 -7.64 5.36 -9 4 C-8.67 3.34 -8.34 2.68 -8 2 C-5.69 2.33 -3.38 2.66 -1 3 C-0.67 2.01 -0.34 1.02 0 0 Z " fill="#AD975A" transform="translate(84,137)"/>
<path d="M0 0 C0.66 0.33 1.32 0.66 2 1 C2 1.66 2 2.32 2 3 C2.66 3 3.32 3 4 3 C4 3.66 4 4.32 4 5 C4.66 5 5.32 5 6 5 C6 5.66 6 6.32 6 7 C2.51669784 6.35494404 -0.09432866 5.01782732 -3 3 C-3 2.34 -3 1.68 -3 1 C-2.01 0.67 -1.02 0.34 0 0 Z " fill="#716A51" transform="translate(105,112)"/>
<path d="M0 0 C-0.33 1.65 -0.66 3.3 -1 5 C-3.64 5 -6.28 5 -9 5 C-9 3.68 -9 2.36 -9 1 C-8.34 1 -7.68 1 -7 1 C-7 1.66 -7 2.32 -7 3 C-6.21625 2.505 -5.4325 2.01 -4.625 1.5 C-2 0 -2 0 0 0 Z " fill="#403B2C" transform="translate(97,77)"/>
<path d="M0 0 C0.66 0 1.32 0 2 0 C2 0.99 2 1.98 2 3 C3.98 3 5.96 3 8 3 C8.66 4.32 9.32 5.64 10 7 C5.545 6.01 5.545 6.01 1 5 C0.67 3.35 0.34 1.7 0 0 Z " fill="#545144" transform="translate(38,59)"/>
<path d="M0 0 C1 2 1 2 0.0625 5.125 C-0.288125 6.07375 -0.63875 7.0225 -1 8 C-0.01 8 0.98 8 2 8 C2.33 9.65 2.66 11.3 3 13 C2.01 13 1.02 13 0 13 C0 12.01 0 11.02 0 10 C-0.66 10 -1.32 10 -2 10 C-1.85950482 8.52031676 -1.71245174 7.04125484 -1.5625 5.5625 C-1.48128906 4.73878906 -1.40007812 3.91507813 -1.31640625 3.06640625 C-1 1 -1 1 0 0 Z " fill="#3D342B" transform="translate(100,54)"/>
<path d="M0 0 C2.4375 0.75 2.4375 0.75 5 2 C5.8125 4.125 5.8125 4.125 6 6 C5.01 6.495 5.01 6.495 4 7 C1.875 6.0625 1.875 6.0625 0 5 C0 3.35 0 1.7 0 0 Z " fill="#39301C" transform="translate(41,28)"/>
<path d="M0 0 C0.66 0 1.32 0 2 0 C3.23921302 2.97411124 4.30058404 5.85262818 5 9 C3.35 8.67 1.7 8.34 0 8 C0 5.36 0 2.72 0 0 Z " fill="#24190F" transform="translate(106,105)"/>
<path d="M0 0 C1.5625 1.125 1.5625 1.125 3 3 C2.6875 6.1875 2.6875 6.1875 2 9 C1.34 9 0.68 9 0 9 C0 8.01 0 7.02 0 6 C-0.66 6 -1.32 6 -2 6 C-1.49396008 3.83125748 -1.00016187 2.00032373 0 0 Z " fill="#0E0703" transform="translate(104,103)"/>
<path d="M0 0 C-0.99 1.485 -0.99 1.485 -2 3 C-1.67 3.66 -1.34 4.32 -1 5 C-2.32 4.67 -3.64 4.34 -5 4 C-4.67 3.01 -4.34 2.02 -4 1 C-7.63 1 -11.26 1 -15 1 C-15 0.67 -15 0.34 -15 0 C-4.44191344 -1.33257403 -4.44191344 -1.33257403 0 0 Z " fill="#BAAA6D" transform="translate(34,65)"/>
<path d="M0 0 C0.66 0.33 1.32 0.66 2 1 C1.67 2.65 1.34 4.3 1 6 C-1.31 6 -3.62 6 -6 6 C-6 5.01 -6 4.02 -6 3 C-4.03533587 1.93224776 -2.03144641 0.93446535 0 0 Z " fill="#1B1511" transform="translate(48,36)"/>
<path d="M0 0 C1.65 0 3.3 0 5 0 C5.33 1.65 5.66 3.3 6 5 C5.01 4.34 4.02 3.68 3 3 C3.33 3.99 3.66 4.98 4 6 C2.0625 5.625 2.0625 5.625 0 5 C-0.33 4.34 -0.66 3.68 -1 3 C-0.67 2.01 -0.34 1.02 0 0 Z " fill="#221C0E" transform="translate(77,28)"/>
<path d="M0 0 C0.66 0 1.32 0 2 0 C4.64285714 3.96428571 4.64285714 3.96428571 5 7 C4.0625 9.75 4.0625 9.75 3 12 C2 9 2 9 2 6 C1.34 5.67 0.68 5.34 0 5 C0 3.35 0 1.7 0 0 Z " fill="#635D45" transform="translate(72,10)"/>
<path d="M0 0 C0.66 0.33 1.32 0.66 2 1 C2.3636198 5.24223102 1.5393228 7.58168085 -1 11 C-1.66 11 -2.32 11 -3 11 C-2.835 10.236875 -2.67 9.47375 -2.5 8.6875 C-1.90854604 5.96403764 -1.90854604 5.96403764 -2 3 C-1.34 2.01 -0.68 1.02 0 0 Z " fill="#2B251A" transform="translate(59,98)"/>
<path d="M0 0 C1.65 0.33 3.3 0.66 5 1 C5 3.31 5 5.62 5 8 C4.34 8 3.68 8 3 8 C2.67 6.68 2.34 5.36 2 4 C1.01 4 0.02 4 -1 4 C-0.67 2.68 -0.34 1.36 0 0 Z " fill="#847C69" transform="translate(46,34)"/>
<path d="M0 0 C2.52349243 3.12432397 4.27256146 6.38060496 6 10 C3.6875 9.4375 3.6875 9.4375 1 8 C-0.34776978 5.72037377 -1.11364216 3.51912228 -2 1 C-1.34 0.67 -0.68 0.34 0 0 Z " fill="#332719" transform="translate(56,86)"/>
<path d="M0 0 C0.66 0 1.32 0 2 0 C2.33 2.97 2.66 5.94 3 9 C1.68 9 0.36 9 -1 9 C-0.67 6.03 -0.34 3.06 0 0 Z " fill="#565242" transform="translate(53,52)"/>
<path d="M0 0 C0.33 0.99 0.66 1.98 1 3 C-2.26545761 4.88391785 -5.28111761 5.49287967 -9 6 C-6.22719294 2.91910327 -3.93673644 1.31224548 0 0 Z " fill="#BEAB64" transform="translate(126,20)"/>
<path d="M0 0 C-3.26545761 1.88391785 -6.28111761 2.49287967 -10 3 C-10.33 3.99 -10.66 4.98 -11 6 C-11 4.35 -11 2.7 -11 1 C-6.92630576 -1.03684712 -4.41062136 -1.0257259 0 0 Z " fill="#2E2212" transform="translate(127,18)"/>
<path d="M0 0 C2 1 4 2 6 3 C4.71034824 4.37562854 3.37310707 5.70766393 2 7 C1.34 7 0.68 7 0 7 C0 4.69 0 2.38 0 0 Z " fill="#0F0802" transform="translate(45,104)"/>
<path d="M0 0 C0.66 0.33 1.32 0.66 2 1 C1.67 1.99 1.34 2.98 1 4 C0.34 4 -0.32 4 -1 4 C-1.309375 4.61875 -1.61875 5.2375 -1.9375 5.875 C-2.625 7.25 -3.3125 8.625 -4 10 C-4.66 10 -5.32 10 -6 10 C-5.58578031 5.16743695 -3.53586014 3.17320782 0 0 Z " fill="#8C8260" transform="translate(92,92)"/>
<path d="M0 0 C0.66 0 1.32 0 2 0 C1.67 1.65 1.34 3.3 1 5 C0.34 5 -0.32 5 -1 5 C-1.33 6.65 -1.66 8.3 -2 10 C-2.66 10 -3.32 10 -4 10 C-3.52449439 8.51965236 -3.04448784 7.04074979 -2.5625 5.5625 C-2.29566406 4.73878906 -2.02882813 3.91507812 -1.75390625 3.06640625 C-1 1 -1 1 0 0 Z " fill="#392E13" transform="translate(76,0)"/>
<path d="M0 0 C-0.598125 0.28875 -1.19625 0.5775 -1.8125 0.875 C-4.19327792 2.04742026 -4.19327792 2.04742026 -7 4 C-8.32 3.34 -9.64 2.68 -11 2 C-6.89657963 -0.38570952 -4.61380251 -1.49270081 0 0 Z " fill="#1A1309" transform="translate(116,119)"/>
<path d="M0 0 C0.33 0 0.66 0 1 0 C1 3.3 1 6.6 1 10 C0.01 9.67 -0.98 9.34 -2 9 C-2 7.02 -2 5.04 -2 3 C-1.34 3 -0.68 3 0 3 C0 2.01 0 1.02 0 0 Z " fill="#483D28" transform="translate(40,111)"/>
<path d="M0 0 C2.21399303 3.79541663 3.00980198 7.75629421 4 12 C3.01 11.67 2.02 11.34 1 11 C0.67 9.02 0.34 7.04 0 5 C-0.66 5 -1.32 5 -2 5 C-1.34 3.35 -0.68 1.7 0 0 Z " fill="#3C392D" transform="translate(106,89)"/>
<path d="M0 0 C2.97 0.495 2.97 0.495 6 1 C4.71034824 2.37562854 3.37310707 3.70766393 2 5 C1.34 5 0.68 5 0 5 C0 4.34 0 3.68 0 3 C-1.32 2.67 -2.64 2.34 -4 2 C-2.68 2 -1.36 2 0 2 C0 1.34 0 0.68 0 0 Z " fill="#1A1203" transform="translate(90,75)"/>
<path d="M0 0 C0 0.66 0 1.32 0 2 C-2.75078884 2.91692961 -4.35948913 3.10886083 -7.1875 3.0625 C-9.0746875 3.0315625 -9.0746875 3.0315625 -11 3 C-11.33 3.66 -11.66 4.32 -12 5 C-12.66 4.67 -13.32 4.34 -14 4 C-13.67 3.01 -13.34 2.02 -13 1 C-11.39602723 0.83147753 -9.7918131 0.66525114 -8.1875 0.5 C-7.29417969 0.4071875 -6.40085938 0.314375 -5.48046875 0.21875 C-3 0 -3 0 0 0 Z " fill="#AB9965" transform="translate(142,65)"/>
<path d="M0 0 C-3.22515763 1.73662334 -6.51329166 2.8905928 -10 4 C-10 3.01 -10 2.02 -10 1 C-3.71428571 -1.42857143 -3.71428571 -1.42857143 0 0 Z " fill="#827240" transform="translate(127,20)"/>
<path d="M0 0 C1.98 0 3.96 0 6 0 C6.125 3.375 6.125 3.375 6 7 C5.34 7.66 4.68 8.32 4 9 C2.90341064 5.71023192 3.20046862 4.28696233 4 1 C2.68 0.67 1.36 0.34 0 0 Z " fill="#473E27" transform="translate(123,17)"/>
<path d="M0 0 C1.32 0 2.64 0 4 0 C4 1.65 4 3.3 4 5 C3.34 5 2.68 5 2 5 C1.67 5.99 1.34 6.98 1 8 C0.67 7.01 0.34 6.02 0 5 C0.66 4.01 1.32 3.02 2 2 C1.01 1.67 0.02 1.34 -1 1 C-0.67 0.67 -0.34 0.34 0 0 Z " fill="#BBB188" transform="translate(96,89)"/>
<path d="M0 0 C1.875 0.3125 1.875 0.3125 4 1 C4.66 1.99 5.32 2.98 6 4 C3.6875 4.625 3.6875 4.625 1 5 C0.01 4.34 -0.98 3.68 -2 3 C-1.34 2.67 -0.68 2.34 0 2 C0 1.34 0 0.68 0 0 Z " fill="#3C2E1A" transform="translate(71,84)"/>
<path d="M0 0 C0 0.99 0 1.98 0 3 C-1.98 3 -3.96 3 -6 3 C-6 2.01 -6 1.02 -6 0 C-3 -1 -3 -1 0 0 Z " fill="#1D1407" transform="translate(94,82)"/>
<path d="M0 0 C0.66 0 1.32 0 2 0 C2.33 2.64 2.66 5.28 3 8 C3.66 8 4.32 8 5 8 C5.33 9.65 5.66 11.3 6 13 C5.34 13 4.68 13 4 13 C1.97944157 8.60748167 0.59104765 4.84659077 0 0 Z " fill="#BAB191" transform="translate(53,75)"/>
<path d="M0 0 C0.82638376 2.89234315 1 4.88742431 1 8 C0.34 8 -0.32 8 -1 8 C-1.66 6.02 -2.32 4.04 -3 2 C-2.01 1.34 -1.02 0.68 0 0 Z " fill="#C1B898" transform="translate(59,68)"/>
<path d="M0 0 C0 0.99 0 1.98 0 3 C-2.3125 4.125 -2.3125 4.125 -5 5 C-5.99 4.34 -6.98 3.68 -8 3 C-5.36095629 1.58622659 -2.92879371 0.62759865 0 0 Z " fill="#070300" transform="translate(46,66)"/>
<path d="M0 0 C0.66 0.33 1.32 0.66 2 1 C1.875 2.8125 1.875 2.8125 1 5 C-2.0625 6.75 -2.0625 6.75 -5 8 C-4.1875 6.0625 -4.1875 6.0625 -3 4 C-2.01 3.67 -1.02 3.34 0 3 C0 2.01 0 1.02 0 0 Z " fill="#655738" transform="translate(125,24)"/>
<path d="M0 0 C0.99 0 1.98 0 3 0 C3 1.98 3 3.96 3 6 C2.34 5.67 1.68 5.34 1 5 C0.34 5.66 -0.32 6.32 -1 7 C-1.04254356 5.00045254 -1.04080783 2.99958364 -1 1 C-0.67 0.67 -0.34 0.34 0 0 Z " fill="#342A1B" transform="translate(80,11)"/>
<path d="M0 0 C0.99 0.33 1.98 0.66 3 1 C3 1.99 3 2.98 3 4 C1.02 4.66 -0.96 5.32 -3 6 C-3.33 5.34 -3.66 4.68 -4 4 C-3.34 4 -2.68 4 -2 4 C-2 3.01 -2 2.02 -2 1 C-1.34 0.67 -0.68 0.34 0 0 Z " fill="#837337" transform="translate(79,1)"/>
<path d="M0 0 C0.99 0.33 1.98 0.66 3 1 C2.67 1.66 2.34 2.32 2 3 C2.66 3.33 3.32 3.66 4 4 C1.69 4.33 -0.62 4.66 -3 5 C-2.01 3.35 -1.02 1.7 0 0 Z " fill="#120C04" transform="translate(51,108)"/>
<path d="M0 0 C-0.62759865 2.92879371 -1.58622659 5.36095629 -3 8 C-4.32 7.67 -5.64 7.34 -7 7 C-6.01 7 -5.02 7 -4 7 C-4 5.02 -4 3.04 -4 1 C-2 0 -2 0 0 0 Z " fill="#1F1705" transform="translate(88,106)"/>
<path d="M0 0 C0.99 0.33 1.98 0.66 3 1 C2.34 1 1.68 1 1 1 C1 2.65 1 4.3 1 6 C-0.32 5.67 -1.64 5.34 -3 5 C-3 3.68 -3 2.36 -3 1 C-2.67 1.66 -2.34 2.32 -2 3 C-1.34 3 -0.68 3 0 3 C0 2.01 0 1.02 0 0 Z " fill="#0E0802" transform="translate(113,104)"/>
<path d="M0 0 C-0.75 1.9375 -0.75 1.9375 -2 4 C-4.125 4.75 -4.125 4.75 -6 5 C-6 3.35 -6 1.7 -6 0 C-2.25 -1.125 -2.25 -1.125 0 0 Z " fill="#433920" transform="translate(88,97)"/>
<path d="M0 0 C1.875 0.25 1.875 0.25 4 1 C5.25 3.0625 5.25 3.0625 6 5 C4.35 5.66 2.7 6.32 1 7 C1.33 5.68 1.66 4.36 2 3 C1.34 3 0.68 3 0 3 C0 2.01 0 1.02 0 0 Z " fill="#A39468" transform="translate(80,82)"/>
<path d="M0 0 C2.56687367 3.8503105 1.83288724 5.58569763 1 10 C0.34 9.67 -0.32 9.34 -1 9 C-1.09765625 2.84765625 -1.09765625 2.84765625 -1 1 C-0.67 0.67 -0.34 0.34 0 0 Z " fill="#7F7652" transform="translate(86,72)"/>
<path d="M0 0 C1.32 0.33 2.64 0.66 4 1 C3.67 2.98 3.34 4.96 3 7 C2.34 7 1.68 7 1 7 C0.67 4.69 0.34 2.38 0 0 Z " fill="#A49B6F" transform="translate(99,69)"/>
<path d="M0 0 C0.66 0.66 1.32 1.32 2 2 C1.34 2 0.68 2 0 2 C-0.66 3.65 -1.32 5.3 -2 7 C-2.66 6.34 -3.32 5.68 -4 5 C-4 3.68 -4 2.36 -4 1 C-2.125 0.375 -2.125 0.375 0 0 Z " fill="#151109" transform="translate(60,43)"/>
<path d="M0 0 C0.61875 0.165 1.2375 0.33 1.875 0.5 C3.96063386 1.07634644 3.96063386 1.07634644 6 1 C6 1.99 6 2.98 6 4 C5.34 4 4.68 4 4 4 C3.67 4.66 3.34 5.32 3 6 C2.34 5.67 1.68 5.34 1 5 C0.375 2.4375 0.375 2.4375 0 0 Z " fill="#1E160C" transform="translate(112,27)"/>
<path d="M0 0 C1.32 0.33 2.64 0.66 4 1 C4 1.66 4 2.32 4 3 C1.36 3.66 -1.28 4.32 -4 5 C-2.68 3.35 -1.36 1.7 0 0 Z " fill="#C5B47D" transform="translate(46,114)"/>
<path d="M0 0 C1.32 0.66 2.64 1.32 4 2 C4 2.66 4 3.32 4 4 C1.125 4.625 1.125 4.625 -2 5 C-2.66 4.34 -3.32 3.68 -4 3 C-2.68 3 -1.36 3 0 3 C0 2.01 0 1.02 0 0 Z " fill="#5A523C" transform="translate(33,69)"/>
<path d="M0 0 C-0.33 0.66 -0.66 1.32 -1 2 C-1.99 1.67 -2.98 1.34 -4 1 C-4.33 2.32 -4.66 3.64 -5 5 C-5.99 4.67 -6.98 4.34 -8 4 C-7.1875 2.0625 -7.1875 2.0625 -6 0 C-3 -1 -3 -1 0 0 Z " fill="#76725C" transform="translate(56,61)"/>
<path d="M0 0 C1.98 0.99 1.98 0.99 4 2 C4 1.34 4 0.68 4 0 C5.32 0.33 6.64 0.66 8 1 C8 1.66 8 2.32 8 3 C8.66 3.33 9.32 3.66 10 4 C7.03 3.67 4.06 3.34 1 3 C0.67 2.01 0.34 1.02 0 0 Z " fill="#272316" transform="translate(115,59)"/>
<path d="M0 0 C-0.99 0.495 -0.99 0.495 -2 1 C-3.13350534 3.01669827 -3.13350534 3.01669827 -4 5 C-4.66 5 -5.32 5 -6 5 C-6 4.01 -6 3.02 -6 2 C-6.66 1.67 -7.32 1.34 -8 1 C-5.07175348 0.02391783 -3.04386724 -0.08226668 0 0 Z " fill="#7B7761" transform="translate(117,34)"/>
<path d="M0 0 C0.66 0.99 1.32 1.98 2 3 C1.125 5.6875 1.125 5.6875 0 8 C-0.99 8 -1.98 8 -3 8 C-3.33 8.66 -3.66 9.32 -4 10 C-3.67 8.68 -3.34 7.36 -3 6 C-2.34 6 -1.68 6 -1 6 C-0.67 4.02 -0.34 2.04 0 0 Z " fill="#423D20" transform="translate(88,110)"/>
<path d="M0 0 C0.99 0.33 1.98 0.66 3 1 C3 2.65 3 4.3 3 6 C1.68 6.33 0.36 6.66 -1 7 C-0.67 4.69 -0.34 2.38 0 0 Z " fill="#3C3628" transform="translate(42,103)"/>
<path d="M0 0 C0.99 0.33 1.98 0.66 3 1 C3 1.66 3 2.32 3 3 C3.66 3.33 4.32 3.66 5 4 C3.35 4.66 1.7 5.32 0 6 C0 4.02 0 2.04 0 0 Z " fill="#413721" transform="translate(55,73)"/>
<path d="M0 0 C1.65 0 3.3 0 5 0 C5.33 0.66 5.66 1.32 6 2 C5.01 2.99 4.02 3.98 3 5 C1.5 3.625 1.5 3.625 0 2 C0 1.34 0 0.68 0 0 Z " fill="#50473A" transform="translate(72,61)"/>
<path d="M0 0 C0 2.33333333 0 4.66666667 0 7 C-0.66 7 -1.32 7 -2 7 C-2 5.68 -2 4.36 -2 3 C-2.99 3 -3.98 3 -5 3 C-5 2.34 -5 1.68 -5 1 C-3.35 0.67 -1.7 0.34 0 0 Z " fill="#514D3E" transform="translate(94,59)"/>
<path d="M0 0 C4.95 0.99 4.95 0.99 10 2 C9.67 2.66 9.34 3.32 9 4 C4.545 3.01 4.545 3.01 0 2 C0 1.34 0 0.68 0 0 Z " fill="#706337" transform="translate(32,19)"/>
<path d="M0 0 C1.45792884 -0.05399736 2.91642712 -0.09279177 4.375 -0.125 C5.18710937 -0.14820312 5.99921875 -0.17140625 6.8359375 -0.1953125 C9 0 9 0 11 2 C6.74938644 3.41687119 4.28148375 2.19320039 0 1 C0 0.67 0 0.34 0 0 Z " fill="#322813" transform="translate(32,18)"/>
<path d="M0 0 C1.98 0.66 3.96 1.32 6 2 C5.34 3.65 4.68 5.3 4 7 C2 4 2 4 2 2 C1.34 2 0.68 2 0 2 C0 1.34 0 0.68 0 0 Z " fill="#554D2B" transform="translate(98,87)"/>
<path d="M0 0 C0.66 0.33 1.32 0.66 2 1 C2 1.66 2 2.32 2 3 C3.32 3.33 4.64 3.66 6 4 C4.68 4 3.36 4 2 4 C1.67 4.66 1.34 5.32 1 6 C-0.32 5.01 -1.64 4.02 -3 3 C-2.01 3 -1.02 3 0 3 C0 2.01 0 1.02 0 0 Z " fill="#191301" transform="translate(67,74)"/>
<path d="M0 0 C0.33 0.66 0.66 1.32 1 2 C0.34 2 -0.32 2 -1 2 C-0.67 3.32 -0.34 4.64 0 6 C-1.98 6.99 -1.98 6.99 -4 8 C-3.6875 5.125 -3.6875 5.125 -3 2 C-2.01 1.34 -1.02 0.68 0 0 Z " fill="#2B2416" transform="translate(89,65)"/>
<path d="M0 0 C0.33 1.32 0.66 2.64 1 4 C-1.31 4.33 -3.62 4.66 -6 5 C-2.25 1.125 -2.25 1.125 0 0 Z " fill="#1B1309" transform="translate(38,60)"/>
<path d="M0 0 C0.66 0.33 1.32 0.66 2 1 C1.6875 2.9375 1.6875 2.9375 1 5 C0.01 5.33 -0.98 5.66 -2 6 C-2.33 5.34 -2.66 4.68 -3 4 C-2.01 2.68 -1.02 1.36 0 0 Z " fill="#0F0804" transform="translate(88,61)"/>
</svg>
